<svg xmlns="http://www.w3.org/2000/svg" xmlns:xlink="http://www.w3.org/1999/xlink" width="500" zoomAndPan="magnify" viewBox="0 0 375 374.999991" height="500" preserveAspectRatio="xMidYMid meet" version="1.0"><defs><g/><clipPath id="fb6be4d65b"><path d="M 80.179688 190 L 292.429688 190 L 292.429688 210.746094 L 80.179688 210.746094 Z M 80.179688 190 " clip-rule="nonzero"/></clipPath></defs><g clip-path="url(#fb6be4d65b)"><path fill="#c0954f" d="M 90.253906 190.425781 L 282.601562 190.425781 C 288.140625 190.425781 292.675781 194.957031 292.675781 200.5 C 292.675781 206.039062 288.140625 210.570312 282.601562 210.570312 L 282.582031 210.570312 L 282.582031 207 L 282.601562 207 C 286.175781 207 289.101562 204.074219 289.101562 200.5 C 289.101562 196.921875 286.175781 194 282.601562 194 L 90.253906 194 C 86.675781 194 83.75 196.921875 83.75 200.5 C 83.75 204.074219 86.675781 207 90.253906 207 L 90.269531 207 L 90.269531 210.570312 L 90.253906 210.570312 C 84.710938 210.574219 80.179688 206.039062 80.179688 200.5 C 80.179688 194.957031 84.710938 190.425781 90.253906 190.425781 " fill-opacity="1" fill-rule="nonzero"/></g><path fill="#c0954f" d="M 223.214844 160.289062 C 221.707031 160.371094 220.085938 160.496094 218.609375 160.773438 C 217.988281 160.890625 216.722656 161.152344 216.140625 161.46875 C 215.007812 163.429688 214.292969 165.65625 213.828125 167.863281 C 213.152344 171.109375 212.964844 174.554688 213.0625 177.867188 C 213.097656 179.046875 213.171875 180.230469 213.292969 181.402344 C 213.339844 181.871094 213.390625 182.558594 213.507812 183.011719 C 213.554688 183.199219 213.734375 183.683594 213.984375 183.695312 L 221.390625 183.566406 C 221.082031 177.621094 221.019531 171.101562 221.96875 165.210938 C 222.183594 163.882812 222.601562 161.59375 223.214844 160.289062 M 222.8125 180.285156 C 226.71875 180.324219 231.660156 179.160156 235.171875 177.621094 C 237.5 176.601562 240.75 175.058594 241.394531 172.320312 C 241.589844 171.492188 241.574219 170.609375 241.546875 169.765625 C 241.488281 168.070312 241.003906 160.449219 239.160156 159.949219 C 238.421875 159.746094 237.394531 159.6875 236.628906 159.636719 C 235.355469 159.550781 234.074219 159.507812 232.800781 159.480469 C 231.027344 159.4375 229.246094 159.421875 227.464844 159.453125 C 226.109375 159.363281 224.976562 160.296875 224.636719 161.578125 C 223.050781 167.515625 222.886719 174.175781 222.8125 180.285156 Z M 243.546875 171.984375 L 270.617188 172.972656 C 271.914062 173.152344 273.230469 174.0625 273.265625 175.476562 L 273.273438 175.773438 L 269.082031 175.71875 L 269.023438 175.765625 C 266.472656 177.730469 263.910156 179.707031 261.410156 181.730469 C 260.535156 182.441406 258.945312 183.386719 257.746094 183.28125 L 257.742188 183.277344 C 246.140625 183.242188 234.542969 183.191406 222.941406 183.148438 L 222.941406 184.875 L 212.648438 184.957031 L 212.640625 184.867188 C 212.164062 180.246094 211.8125 175.324219 212.347656 170.707031 C 212.644531 168.148438 213.257812 165.441406 214.242188 163.058594 C 214.664062 162.039062 215.71875 159.761719 216.859375 159.378906 C 217.925781 159.023438 219.792969 158.855469 220.921875 158.734375 C 223.21875 158.488281 225.539062 158.328125 227.84375 158.265625 C 229.816406 158.207031 231.828125 158.210938 233.792969 158.378906 C 235.363281 158.515625 236.976562 158.574219 238.539062 158.757812 C 239.367188 158.855469 240.363281 159.011719 241.003906 159.589844 C 241.605469 160.132812 241.839844 160.988281 241.988281 161.757812 C 242.636719 165.105469 243.09375 168.59375 243.546875 171.984375 Z M 223.371094 185.300781 L 223.371094 183.578125 L 257.714844 183.707031 C 259.023438 183.816406 260.71875 182.839844 261.679688 182.0625 C 264.148438 180.0625 266.683594 178.117188 269.199219 176.171875 L 269.226562 176.148438 L 273.285156 176.203125 L 273.285156 176.300781 C 273.363281 179.609375 273.421875 182.929688 273.421875 186.234375 C 273.492188 186.921875 273.308594 187.917969 272.421875 187.917969 C 269.269531 187.917969 266.09375 187.839844 262.945312 187.800781 C 256.3125 187.710938 249.683594 187.621094 243.054688 187.535156 C 233.261719 187.402344 223.46875 187.265625 213.667969 187.136719 C 213.027344 187.089844 212.761719 185.972656 212.703125 185.496094 L 212.691406 185.386719 Z M 223.371094 185.300781 " fill-opacity="1" fill-rule="nonzero"/><path fill="#c0954f" d="M 257.910156 188.128906 L 213.507812 187.503906 C 213.507812 187.503906 211.601562 187.386719 211.730469 180.0625 L 202.394531 180.140625 C 202.394531 180.140625 200.589844 179.933594 200.117188 181.710938 C 199.648438 183.488281 199.804688 185.214844 199.804688 185.214844 L 208.304688 185.398438 L 199.804688 185.765625 C 199.804688 185.765625 199.910156 188.117188 201.214844 188.351562 C 202.523438 188.589844 223.050781 188.824219 223.050781 188.824219 L 212.722656 189.164062 L 212.828125 190.679688 L 233.617188 190.917969 L 233.695312 190.234375 L 234.585938 190.050781 L 235.03125 188.613281 Z M 257.910156 188.128906 " fill-opacity="1" fill-rule="nonzero"/><path fill="#c0954f" d="M 247.613281 172.769531 C 247.578125 172.222656 247.523438 171.101562 247.660156 171.054688 C 247.84375 170.992188 258.4375 167.578125 258.4375 167.578125 L 258.332031 170.148438 L 258.957031 166.347656 C 258.957031 166.347656 259.011719 165.640625 262.28125 165.414062 C 265.546875 165.1875 266.644531 165.46875 266.644531 165.46875 C 266.644531 165.46875 267.5625 165.65625 267.535156 167.695312 C 267.515625 169.207031 267.539062 171.398438 267.554688 172.441406 Z M 247.613281 172.769531 " fill-opacity="1" fill-rule="nonzero"/><path fill="#c0954f" d="M 266.992188 162.492188 C 266.992188 162.492188 264.558594 162.460938 264.289062 163.546875 C 264.019531 164.628906 264.03125 167.277344 264.03125 167.277344 L 264.980469 167.382812 L 265.140625 164.246094 C 265.140625 164.246094 265.417969 163.503906 266.28125 163.550781 L 266.722656 162.894531 Z M 266.992188 162.492188 " fill-opacity="1" fill-rule="nonzero"/><path fill="#c0954f" d="M 223.820312 164.214844 C 224.046875 163.035156 224.273438 162.183594 224.460938 161.476562 C 224.863281 159.972656 225.9375 159.484375 226.675781 159.328125 L 241.054688 173.707031 C 240.386719 174.832031 239.109375 175.921875 236.71875 177.113281 Z M 223.820312 164.214844 " fill-opacity="1" fill-rule="nonzero"/><path fill="#c0954f" d="M 234.828125 177.980469 C 234.234375 178.230469 233.644531 178.453125 233.058594 178.65625 L 223.175781 168.769531 C 223.257812 167.964844 223.34375 167.238281 223.433594 166.585938 Z M 234.828125 177.980469 " fill-opacity="1" fill-rule="nonzero"/><path fill="#c0954f" d="M 221.464844 172.527344 C 221.371094 174.75 221.347656 177.316406 221.429688 180.273438 L 214.023438 166.234375 C 214.445312 164.640625 215.007812 163.097656 215.75 161.699219 Z M 221.464844 172.527344 " fill-opacity="1" fill-rule="nonzero"/><path fill="#c0954f" d="M 221.542969 183.273438 L 221.574219 183.875 L 220.570312 183.890625 L 213.265625 170.046875 C 213.351562 169.425781 213.457031 168.800781 213.578125 168.175781 Z M 221.542969 183.273438 " fill-opacity="1" fill-rule="nonzero"/><path fill="#c0954f" d="M 212.761719 169.585938 C 212.214844 168.714844 211.488281 167.566406 210.648438 166.257812 L 211.121094 165.917969 L 209.5 156.59375 L 206.484375 148.765625 L 208.226562 158.171875 L 207.589844 158.984375 L 208.308594 162.636719 C 204.90625 157.429688 200.8125 151.410156 198.6875 149.214844 C 194.65625 145.050781 191.394531 142.972656 187.367188 141.039062 C 183.339844 139.101562 154.308594 125.191406 154.308594 125.191406 L 151.390625 123.78125 L 151.515625 122.050781 C 151.515625 122.050781 148.167969 120.332031 147.8125 118.949219 C 147.457031 117.5625 147.953125 115.527344 151.558594 116.015625 C 155.160156 116.503906 157.132812 116.589844 161.371094 118.058594 C 165.609375 119.527344 199.621094 132.644531 199.621094 132.644531 C 199.621094 132.644531 208.078125 135.367188 211.042969 141.15625 C 213.65625 146.253906 218.492188 156.519531 219.613281 158.910156 C 219.316406 158.945312 219.011719 158.988281 218.714844 159.03125 L 209.519531 140.757812 C 209.519531 140.757812 207.511719 137.902344 203.324219 135.789062 C 199.132812 133.675781 158.820312 118.167969 158.820312 118.167969 L 202.882812 136.769531 C 202.882812 136.769531 206.382812 138.355469 208.507812 141.320312 L 217.097656 159.390625 C 215.964844 159.800781 214.925781 162.050781 214.507812 163.058594 C 213.667969 165.097656 213.09375 167.371094 212.761719 169.585938 " fill-opacity="1" fill-rule="nonzero"/><path fill="#c0954f" d="M 203.90625 134.941406 C 203.90625 134.941406 197.707031 127.875 196.972656 127.832031 C 196.234375 127.789062 195.296875 128.007812 195.296875 128.007812 L 171.90625 113.964844 L 171.492188 113.261719 L 168.742188 111.535156 L 168.023438 111.894531 L 167.425781 111.570312 L 167.300781 111.773438 C 167.300781 111.773438 167.71875 113.089844 166.402344 114.25 L 166.402344 114.554688 L 166.992188 115.007812 L 166.765625 115.328125 C 166.765625 115.328125 168.425781 116.597656 168.695312 116.640625 C 168.96875 116.6875 170.148438 116.75 170.148438 116.75 L 194.597656 131.296875 Z M 203.90625 134.941406 " fill-opacity="1" fill-rule="nonzero"/><path fill="#c0954f" d="M 207.167969 183.917969 L 201.757812 162.113281 L 201.320312 161.855469 L 200.644531 159.382812 L 200.972656 158.988281 L 203.664062 158.585938 L 204.085938 158.917969 L 204.625 161.261719 L 204.394531 161.859375 L 209.789062 182.496094 Z M 207.167969 183.917969 " fill-opacity="1" fill-rule="nonzero"/><path fill="#c0954f" d="M 203.113281 159.183594 L 200.742188 150.125 L 199.03125 148.914062 L 201.84375 160.300781 Z M 203.113281 159.183594 " fill-opacity="1" fill-rule="nonzero"/><path fill="#c0954f" d="M 212.410156 175.921875 L 208.945312 161.964844 L 208.507812 161.707031 L 207.832031 159.234375 L 208.160156 158.839844 L 210.851562 158.433594 L 211.273438 158.769531 L 211.816406 161.113281 L 211.582031 161.710938 L 213.777344 170.820312 Z M 212.410156 175.921875 " fill-opacity="1" fill-rule="nonzero"/><path fill="#c0954f" d="M 210.300781 159.03125 L 207.929688 149.972656 L 206.222656 148.765625 L 209.03125 160.148438 Z M 210.300781 159.03125 " fill-opacity="1" fill-rule="nonzero"/><path fill="#c0954f" d="M 196.945312 131.777344 L 152.914062 112.382812 L 152.828125 112.902344 C 152.824219 112.941406 150.765625 132.59375 146.710938 137.597656 C 144.582031 139.84375 142.316406 137.675781 139.894531 135.359375 C 137.136719 132.71875 134.195312 129.910156 130.757812 132.332031 L 131.226562 133.003906 C 134.117188 130.964844 136.804688 133.535156 139.328125 135.953125 C 142.054688 138.558594 144.609375 141 147.300781 138.160156 C 151.691406 133.527344 153.089844 116.023438 153.546875 113.554688 L 196.617188 132.527344 Z M 196.945312 131.777344 " fill-opacity="1" fill-rule="nonzero"/><path fill="#c0954f" d="M 153.710938 107.804688 C 153.714844 102.785156 149.992188 103.503906 146.914062 105.40625 C 144.945312 106.625 144.03125 106.597656 143.171875 108.40625 C 142.3125 110.21875 120.386719 161.242188 120.386719 161.242188 L 143.863281 108.976562 C 143.863281 108.976562 143.882812 107.9375 145.605469 107.050781 C 146.480469 106.601562 147.667969 105.984375 148.617188 105.484375 C 150.96875 104.242188 153.195312 104.109375 153.710938 107.804688 M 152.785156 120.902344 C 152.785156 120.902344 153.636719 110.621094 154.140625 109.261719 C 154.640625 107.90625 157.367188 105.804688 157.480469 103.699219 C 157.597656 101.59375 153.929688 99.851562 149.644531 101.566406 C 145.363281 103.28125 142.070312 104.332031 140.84375 105.84375 C 139.617188 107.355469 137.1875 110.828125 135.113281 112.601562 C 133.035156 114.371094 131.902344 115.257812 133.550781 116.945312 C 135.199219 118.636719 136.84375 116.957031 137.191406 118.925781 L 117.34375 162.746094 C 117.34375 162.746094 116.332031 167.875 119.394531 167.699219 C 122.453125 167.519531 124.886719 162.277344 124.886719 162.277344 Z M 152.785156 120.902344 " fill-opacity="1" fill-rule="nonzero"/><path fill="#c0954f" d="M 168.929688 112.90625 L 161.152344 108.253906 L 160.433594 110.363281 L 167.625 114.703125 Z M 168.929688 112.90625 " fill-opacity="1" fill-rule="nonzero"/><path fill="#c0954f" d="M 120.738281 182.816406 C 120.738281 182.816406 118.21875 180.847656 117.140625 179.734375 C 117.140625 179.734375 116.914062 179.550781 116.414062 179.644531 C 115.914062 179.738281 115.066406 179.945312 115.066406 179.945312 C 115.066406 179.945312 114.691406 180.015625 114.835938 180.5 C 114.980469 180.984375 115.402344 182.335938 115.503906 182.65625 C 115.605469 182.976562 115.605469 183.554688 116.136719 183.53125 C 116.667969 183.503906 120.738281 182.816406 120.738281 182.816406 M 114.355469 183.550781 C 114.355469 183.550781 109.234375 184.921875 105.546875 183.804688 C 105.546875 183.804688 105.722656 182.9375 106.992188 182.9375 C 108.265625 182.9375 110.832031 182.042969 112.050781 180.980469 L 107.660156 167.175781 L 113.074219 180.28125 C 113.074219 180.28125 113.394531 180.085938 113.515625 180.347656 C 113.640625 180.605469 114.355469 183.550781 114.355469 183.550781 Z M 116.941406 178.765625 L 115.847656 178.910156 C 115.847656 178.910156 112.117188 171.730469 112.332031 165.925781 C 112.332031 165.925781 113.226562 170.558594 114.40625 173.480469 C 115.589844 176.398438 116.941406 178.765625 116.941406 178.765625 Z M 108.53125 163.039062 C 108.53125 163.039062 101.566406 167.609375 100.554688 175.757812 C 100.554688 175.757812 99.960938 176.910156 100.09375 178.070312 C 100.222656 179.226562 100.800781 182.25 104.222656 184.292969 C 107.648438 186.332031 114.941406 184.539062 114.941406 184.539062 L 115.199219 184.199219 L 119.199219 183.996094 L 119.449219 184.1875 L 123.511719 183.835938 C 123.511719 183.835938 124.398438 184.4375 126.113281 183.640625 L 123.6875 182.898438 L 124.976562 182.976562 L 124.589844 182.691406 L 123.375 182.46875 L 124.179688 182.472656 L 123.925781 182.304688 L 122.832031 181.957031 L 120.214844 179.953125 L 118.804688 179.835938 C 118.804688 179.835938 113.960938 173.132812 113.394531 165.574219 C 113.394531 165.574219 113.152344 164.851562 112.21875 164.292969 C 111.28125 163.730469 108.53125 163.039062 108.53125 163.039062 Z M 108.53125 163.039062 " fill-opacity="1" fill-rule="nonzero"/><path fill="#c0954f" d="M 100.414062 178.25 C 100.414062 178.25 99.332031 176.320312 99.421875 175.308594 C 99.511719 174.296875 99.96875 172.578125 99.96875 172.578125 C 99.96875 172.578125 101.304688 168.902344 102.054688 166.171875 C 102.804688 163.441406 102.917969 162.621094 104.324219 161.988281 C 105.730469 161.355469 105.933594 161.542969 106.90625 161.050781 C 107.875 160.558594 113.359375 158.433594 114.65625 159.691406 C 115.953125 160.949219 113.886719 164.636719 113.886719 164.636719 C 113.886719 164.636719 113.238281 163.972656 111.914062 163.613281 C 110.589844 163.253906 108.53125 163.039062 108.53125 163.039062 L 104.234375 170.992188 Z M 100.414062 178.25 " fill-opacity="1" fill-rule="nonzero"/><path fill="#c0954f" d="M 119.976562 166.402344 C 119.753906 167.015625 119.078125 167.335938 118.464844 167.117188 C 117.851562 166.894531 117.53125 166.21875 117.75 165.605469 C 117.972656 164.992188 118.644531 164.671875 119.261719 164.890625 C 119.875 165.113281 120.195312 165.789062 119.976562 166.402344 M 114 157.199219 C 113.792969 157.773438 113.160156 158.074219 112.585938 157.867188 C 112.011719 157.660156 111.710938 157.027344 111.917969 156.453125 C 112.121094 155.878906 112.753906 155.578125 113.328125 155.785156 C 113.90625 155.988281 114.203125 156.621094 114 157.199219 Z M 116.679688 155.734375 C 116.539062 156.128906 116.105469 156.335938 115.710938 156.191406 C 115.316406 156.050781 115.109375 155.617188 115.25 155.222656 C 115.390625 154.828125 115.828125 154.621094 116.222656 154.765625 C 116.613281 154.90625 116.820312 155.339844 116.679688 155.734375 Z M 117.132812 165.207031 C 117.132812 165.207031 116.789062 165.878906 117.144531 166.757812 C 117.503906 167.632812 120.039062 168.734375 120.558594 166.230469 C 120.789062 165.375 119.605469 161.710938 119.367188 160.84375 C 119.046875 159.675781 118.695312 158.390625 118.402344 157.402344 C 117.699219 154.992188 117.273438 153.707031 116.289062 153.601562 C 115.304688 153.5 113.914062 154.339844 112.929688 154.808594 C 111.945312 155.273438 110.988281 155.851562 111.195312 156.957031 C 111.402344 158.0625 112.304688 158.488281 113.234375 158.71875 C 114.160156 158.949219 114.792969 158.765625 115.386719 160.089844 C 115.980469 161.414062 117.492188 164.746094 117.132812 165.207031 Z M 117.132812 165.207031 " fill-opacity="1" fill-rule="nonzero"/><path fill="#ffffff" d="M 119.695312 166.300781 C 119.53125 166.761719 119.023438 167 118.566406 166.835938 C 118.105469 166.671875 117.867188 166.164062 118.03125 165.707031 C 118.195312 165.246094 118.699219 165.007812 119.160156 165.171875 C 119.621094 165.335938 119.859375 165.839844 119.695312 166.300781 " fill-opacity="1" fill-rule="nonzero"/><path fill="#c0954f" d="M 113.671875 157.082031 C 113.53125 157.476562 113.097656 157.679688 112.703125 157.539062 C 112.308594 157.398438 112.101562 156.964844 112.242188 156.570312 C 112.386719 156.175781 112.820312 155.96875 113.214844 156.109375 C 113.609375 156.253906 113.8125 156.6875 113.671875 157.082031 " fill-opacity="1" fill-rule="nonzero"/><path fill="#c0954f" d="M 116.398438 155.632812 C 116.3125 155.871094 116.050781 155.996094 115.808594 155.910156 C 115.570312 155.824219 115.445312 155.5625 115.53125 155.324219 C 115.617188 155.082031 115.882812 154.960938 116.121094 155.046875 C 116.359375 155.132812 116.484375 155.394531 116.398438 155.632812 " fill-opacity="1" fill-rule="nonzero"/><path fill="#c0954f" d="M 112.425781 158.140625 L 108.917969 161.855469 L 106.890625 161.359375 L 111.472656 156.800781 C 111.472656 156.800781 111.78125 157.660156 112.425781 158.140625 " fill-opacity="1" fill-rule="nonzero"/><path fill="#c0954f" d="M 119.292969 146.195312 C 119.292969 146.195312 120.46875 147.550781 122.339844 148.257812 L 125.550781 144.253906 C 127.28125 141.082031 128.667969 138.476562 129.390625 136.976562 C 130.460938 134.769531 131.34375 132.605469 132.082031 130.621094 Z M 119.292969 146.195312 " fill-opacity="1" fill-rule="nonzero"/><path fill="#c0954f" d="M 120.574219 146.90625 L 114.910156 154.015625 L 115.480469 153.882812 L 120.933594 147.164062 Z M 120.375 146.335938 L 113.652344 154.546875 L 116.632812 153.851562 L 122.0625 147.207031 Z M 120.375 146.335938 " fill-opacity="1" fill-rule="nonzero"/><path fill="#c0954f" d="M 140.074219 167.863281 C 140.195312 167.050781 140.371094 166.226562 140.644531 165.453125 C 140.871094 164.800781 141.320312 163.769531 142.011719 163.335938 L 141.125 163.335938 C 139.683594 163.335938 138.515625 166.675781 138.515625 170.796875 C 138.515625 173.308594 138.949219 175.535156 139.617188 176.882812 L 140.949219 176.882812 C 140.824219 176.617188 140.71875 176.355469 140.644531 176.136719 C 140.371094 175.363281 140.195312 174.539062 140.074219 173.730469 C 139.929688 172.761719 139.867188 171.773438 139.867188 170.796875 C 139.867188 169.816406 139.929688 168.832031 140.074219 167.863281 " fill-opacity="1" fill-rule="nonzero"/><path fill="#c0954f" d="M 178.242188 176.652344 C 179.207031 176.652344 179.988281 179.382812 179.988281 182.753906 C 179.988281 186.121094 179.207031 188.851562 178.242188 188.851562 C 177.277344 188.851562 176.492188 186.121094 176.492188 182.753906 C 176.492188 179.382812 177.273438 176.652344 178.242188 176.652344 M 135.941406 190.652344 L 135.003906 190.652344 C 133.476562 190.652344 132.238281 187.117188 132.238281 182.753906 C 132.238281 178.390625 133.476562 174.851562 135.003906 174.851562 L 135.941406 174.851562 C 135.210938 175.3125 134.734375 176.402344 134.492188 177.09375 C 134.207031 177.914062 134.019531 178.785156 133.890625 179.644531 C 133.738281 180.671875 133.671875 181.714844 133.671875 182.753906 C 133.671875 183.789062 133.738281 184.832031 133.890625 185.859375 C 134.019531 186.71875 134.207031 187.589844 134.492188 188.410156 C 134.734375 189.101562 135.210938 190.191406 135.941406 190.652344 Z M 138.398438 176.652344 L 174.699219 176.652344 C 175.175781 175.527344 175.789062 174.851562 176.457031 174.851562 L 177.394531 174.851562 C 176.664062 175.3125 176.1875 176.402344 175.945312 177.09375 C 175.65625 177.914062 175.46875 178.785156 175.34375 179.644531 C 175.191406 180.671875 175.125 181.714844 175.125 182.753906 C 175.125 183.789062 175.191406 184.835938 175.34375 185.859375 C 175.46875 186.71875 175.65625 187.589844 175.945312 188.410156 C 176.1875 189.101562 176.664062 190.191406 177.394531 190.652344 L 176.457031 190.652344 C 175.789062 190.652344 175.175781 189.976562 174.699219 188.851562 L 138.410156 188.851562 C 137.933594 189.976562 137.320312 190.652344 136.652344 190.652344 C 135.125 190.652344 133.886719 187.117188 133.886719 182.753906 C 133.886719 178.390625 135.125 174.851562 136.652344 174.851562 C 137.226562 174.851562 137.765625 175.359375 138.207031 176.222656 L 136.535156 176.222656 C 135.570312 176.222656 134.789062 178.953125 134.789062 182.320312 C 134.789062 184.859375 135.230469 187.035156 135.863281 187.953125 C 135.363281 186.878906 135.027344 184.953125 135.027344 182.753906 C 135.027344 182.609375 135.03125 182.46875 135.035156 182.332031 L 173.695312 182.332031 C 173.710938 181.347656 173.792969 180.410156 173.925781 179.554688 L 135.289062 179.554688 C 135.324219 179.355469 135.363281 179.164062 135.40625 178.980469 L 174.027344 178.980469 C 174.085938 178.664062 174.152344 178.363281 174.226562 178.078125 L 135.65625 178.078125 C 135.957031 177.191406 136.351562 176.65625 136.777344 176.65625 L 138.398438 176.65625 Z M 178.105469 174.851562 C 179.632812 174.851562 180.871094 178.390625 180.871094 182.753906 C 180.871094 187.117188 179.632812 190.652344 178.105469 190.652344 C 176.578125 190.652344 175.339844 187.117188 175.339844 182.753906 C 175.339844 178.390625 176.578125 174.851562 178.105469 174.851562 Z M 178.105469 174.851562 " fill-opacity="1" fill-rule="nonzero"/><path fill="#c0954f" d="M 185.683594 176.386719 C 185.078125 176.386719 184.527344 176.996094 184.09375 178.011719 L 180.316406 178.011719 C 180.421875 178.414062 180.515625 178.84375 180.59375 179.296875 L 183.667969 179.296875 C 183.601562 179.554688 183.542969 179.828125 183.488281 180.109375 L 180.710938 180.109375 C 180.734375 180.28125 180.753906 180.457031 180.769531 180.632812 L 183.398438 180.632812 C 183.28125 181.402344 183.203125 182.25 183.1875 183.136719 L 180.867188 183.136719 C 180.828125 185.535156 180.414062 187.65625 179.785156 189.027344 L 184.09375 189.027344 C 184.527344 190.042969 185.078125 190.652344 185.683594 190.652344 L 186.527344 190.652344 C 185.867188 190.238281 185.441406 189.253906 185.222656 188.628906 C 184.960938 187.886719 184.792969 187.097656 184.675781 186.324219 C 184.539062 185.398438 184.480469 184.453125 184.480469 183.519531 C 184.480469 182.582031 184.539062 181.640625 184.675781 180.710938 C 184.792969 179.9375 184.960938 179.148438 185.222656 178.410156 C 185.441406 177.785156 185.867188 176.800781 186.527344 176.382812 Z M 185.683594 176.386719 " fill-opacity="1" fill-rule="nonzero"/><path fill="#c0954f" d="M 185.714844 183.519531 C 185.714844 180.476562 186.421875 178.011719 187.292969 178.011719 C 188.164062 178.011719 188.871094 180.476562 188.871094 183.519531 C 188.871094 186.558594 188.164062 189.027344 187.292969 189.027344 C 186.421875 189.027344 185.714844 186.558594 185.714844 183.519531 M 187.171875 176.386719 C 185.792969 176.386719 184.671875 179.578125 184.671875 183.519531 C 184.671875 187.457031 185.792969 190.652344 187.171875 190.652344 C 188.550781 190.652344 189.667969 187.457031 189.667969 183.519531 C 189.667969 179.578125 188.550781 176.386719 187.171875 176.386719 Z M 187.171875 176.386719 " fill-opacity="1" fill-rule="nonzero"/><path fill="#c0954f" d="M 179.78125 176.136719 C 179.507812 175.363281 179.332031 174.539062 179.210938 173.730469 C 179.070312 172.761719 179.003906 171.773438 179.003906 170.796875 C 179.003906 169.816406 179.070312 168.832031 179.210938 167.863281 C 179.332031 167.054688 179.507812 166.230469 179.78125 165.453125 C 180.011719 164.800781 180.457031 163.769531 181.148438 163.335938 L 180.265625 163.335938 C 179.632812 163.335938 179.054688 163.976562 178.605469 165.039062 L 142.800781 165.039062 C 142.398438 165.039062 142.027344 165.542969 141.742188 166.382812 L 178.160156 166.382812 C 178.089844 166.652344 178.027344 166.9375 177.96875 167.230469 L 141.503906 167.230469 C 141.46875 167.40625 141.429688 167.589844 141.398438 167.777344 L 177.875 167.777344 C 177.75 168.585938 177.671875 169.46875 177.65625 170.394531 L 141.15625 170.394531 C 141.152344 170.527344 141.152344 170.660156 141.152344 170.796875 C 141.152344 172.871094 141.464844 174.691406 141.9375 175.703125 C 141.34375 174.835938 140.921875 172.785156 140.921875 170.386719 C 140.921875 167.207031 141.660156 164.628906 142.570312 164.628906 L 144.152344 164.628906 C 143.734375 163.8125 143.226562 163.335938 142.683594 163.335938 C 141.242188 163.335938 140.070312 166.675781 140.070312 170.796875 C 140.070312 173.308594 140.507812 175.535156 141.175781 176.882812 L 144.191406 176.882812 C 144.242188 176.777344 144.292969 176.667969 144.339844 176.554688 L 174.386719 176.554688 C 174.839844 175.628906 175.394531 175.082031 175.996094 175.082031 L 176.933594 175.082031 C 176.441406 175.394531 176.066406 175.988281 175.796875 176.554688 L 176.039062 176.554688 C 176.488281 175.628906 177.042969 175.082031 177.644531 175.082031 C 178.535156 175.082031 179.328125 176.285156 179.832031 178.152344 C 179.925781 178.199219 180.023438 178.230469 180.121094 178.242188 L 181.128906 178.242188 C 180.449219 177.804688 180.007812 176.785156 179.78125 176.136719 " fill-opacity="1" fill-rule="nonzero"/><path fill="#c0954f" d="M 179.207031 170.796875 C 179.207031 174.777344 180.300781 178.03125 181.679688 178.242188 L 181.960938 178.242188 C 183.335938 178.03125 184.429688 174.777344 184.429688 170.796875 C 184.429688 166.675781 183.261719 163.335938 181.820312 163.335938 C 180.378906 163.335938 179.207031 166.675781 179.207031 170.796875 M 180.296875 170.796875 C 180.296875 167.617188 181.035156 165.035156 181.949219 165.035156 C 182.859375 165.035156 183.597656 167.613281 183.597656 170.796875 C 183.597656 173.976562 182.859375 176.550781 181.949219 176.550781 C 181.035156 176.550781 180.296875 173.976562 180.296875 170.796875 Z M 180.296875 170.796875 " fill-opacity="1" fill-rule="nonzero"/><g fill="#54331e" fill-opacity="1"><g transform="translate(89.629516, 233.568193)"><g><path d="M 2.265625 -29.734375 L 6.234375 -29.734375 L 6.234375 0 L 2.265625 0 Z M 2.265625 -29.734375 "/></g></g></g><g fill="#54331e" fill-opacity="1"><g transform="translate(97.962799, 233.568193)"><g><path d="M 0.828125 -23.78125 L 4.796875 -23.78125 L 7.765625 -5.953125 L 10.71875 -23.78125 L 12.734375 -23.78125 L 8.75 0 L 4.796875 0 Z M 0.828125 -23.78125 "/></g></g></g><g fill="#54331e" fill-opacity="1"><g transform="translate(111.345341, 233.568193)"><g><path d="M 5.296875 -10.390625 L 0.828125 -23.78125 L 4.796875 -23.78125 C 4.878906 -23.5 5.007812 -23.09375 5.1875 -22.5625 C 5.375 -22.03125 5.578125 -21.421875 5.796875 -20.734375 C 6.015625 -20.046875 6.253906 -19.328125 6.515625 -18.578125 C 6.773438 -17.828125 7.015625 -17.109375 7.234375 -16.421875 C 7.453125 -15.742188 7.65625 -15.128906 7.84375 -14.578125 C 8.03125 -14.023438 8.164062 -13.628906 8.25 -13.390625 L 11.703125 -23.78125 L 13.71875 -23.78125 L 9.234375 -10.390625 L 9.234375 0 L 5.296875 0 Z M 5.296875 -10.390625 "/></g></g></g><g fill="#54331e" fill-opacity="1"><g transform="translate(125.713106, 233.568193)"><g/></g></g><g fill="#54331e" fill-opacity="1"><g transform="translate(133.75904, 233.568193)"><g><path d="M 2.265625 -29.734375 L 11.171875 -29.734375 L 10.1875 -27.765625 L 6.234375 -27.765625 L 6.234375 -14.859375 L 10.1875 -14.859375 L 9.203125 -12.890625 L 6.234375 -12.890625 L 6.234375 -1.96875 L 11.171875 -1.96875 L 11.171875 0 L 2.265625 0 Z M 2.265625 -29.734375 "/></g></g></g><g fill="#54331e" fill-opacity="1"><g transform="translate(145.992161, 233.568193)"><g><path d="M 4.265625 -20.8125 L 3.78125 -23.78125 L 7.765625 -23.78125 L 11.703125 0 L 7.765625 0 L 6.9375 -4.96875 L 3.609375 -4.96875 L 2.796875 0 L 0.828125 0 Z M 6.609375 -6.9375 L 5.296875 -14.859375 L 3.9375 -6.9375 Z M 6.609375 -6.9375 "/></g></g></g><g fill="#54331e" fill-opacity="1"><g transform="translate(158.348432, 233.568193)"><g><path d="M 2.625 -20.8125 L 1.640625 -23.78125 L 6.609375 -23.78125 C 7.753906 -23.78125 8.757812 -23.660156 9.625 -23.421875 C 10.488281 -23.191406 11.210938 -22.804688 11.796875 -22.265625 C 12.390625 -21.734375 12.828125 -21.023438 13.109375 -20.140625 C 13.398438 -19.253906 13.546875 -18.148438 13.546875 -16.828125 C 13.546875 -15.210938 13.328125 -13.925781 12.890625 -12.96875 C 12.453125 -12.007812 11.796875 -11.285156 10.921875 -10.796875 L 13.546875 0 L 9.5625 0 L 7.1875 -9.9375 C 7.050781 -9.90625 6.859375 -9.890625 6.609375 -9.890625 L 6.609375 0 L 2.625 0 Z M 6.609375 -11.828125 C 7.265625 -11.828125 7.804688 -11.96875 8.234375 -12.25 C 8.660156 -12.539062 8.992188 -12.925781 9.234375 -13.40625 C 9.484375 -13.882812 9.65625 -14.414062 9.75 -15 C 9.84375 -15.59375 9.890625 -16.203125 9.890625 -16.828125 C 9.890625 -17.460938 9.84375 -18.070312 9.75 -18.65625 C 9.65625 -19.25 9.484375 -19.785156 9.234375 -20.265625 C 8.992188 -20.742188 8.660156 -21.125 8.234375 -21.40625 C 7.804688 -21.695312 7.265625 -21.859375 6.609375 -21.890625 Z M 6.609375 -11.828125 "/></g></g></g><g fill="#54331e" fill-opacity="1"><g transform="translate(173.373007, 233.568193)"><g><path d="M 5.21875 -21.796875 L 1.234375 -21.796875 L 1.234375 -23.78125 L 13.140625 -23.78125 L 13.140625 -21.796875 L 9.15625 -21.796875 L 9.15625 0 L 5.21875 0 Z M 5.21875 -21.796875 "/></g></g></g><g fill="#54331e" fill-opacity="1"><g transform="translate(187.57656, 233.568193)"><g><path d="M 2.265625 -23.78125 L 6.234375 -23.78125 L 6.234375 -14.859375 L 10.1875 -14.859375 L 10.1875 -23.78125 L 14.171875 -23.78125 L 14.171875 0 L 10.1875 0 L 10.1875 -12.890625 L 6.234375 -12.890625 L 6.234375 0 L 2.265625 0 Z M 2.265625 -23.78125 "/></g></g></g><g fill="#54331e" fill-opacity="1"><g transform="translate(203.832663, 233.568193)"><g><path d="M 0.828125 -23.78125 L 4.796875 -23.78125 L 7.765625 -5.953125 L 10.21875 -20.8125 L 9.734375 -23.78125 L 13.71875 -23.78125 L 16.671875 -5.953125 L 19.625 -23.78125 L 21.640625 -23.78125 L 17.65625 0 L 13.71875 0 L 11.203125 -14.859375 L 8.75 0 L 4.796875 0 Z M 0.828125 -23.78125 "/></g></g></g><g fill="#54331e" fill-opacity="1"><g transform="translate(226.123235, 233.568193)"><g><path d="M 8.671875 0 C 7.515625 0 6.46875 -0.195312 5.53125 -0.59375 C 4.601562 -0.988281 3.828125 -1.648438 3.203125 -2.578125 C 2.578125 -3.515625 2.09375 -4.742188 1.75 -6.265625 C 1.40625 -7.785156 1.234375 -9.664062 1.234375 -11.90625 C 1.234375 -14.125 1.40625 -15.992188 1.75 -17.515625 C 2.09375 -19.035156 2.578125 -20.257812 3.203125 -21.1875 C 3.828125 -22.113281 4.601562 -22.773438 5.53125 -23.171875 C 6.46875 -23.578125 7.515625 -23.78125 8.671875 -23.78125 C 9.816406 -23.78125 10.851562 -23.578125 11.78125 -23.171875 C 12.71875 -22.773438 13.5 -22.113281 14.125 -21.1875 C 14.75 -20.257812 15.234375 -19.035156 15.578125 -17.515625 C 15.921875 -15.992188 16.09375 -14.125 16.09375 -11.90625 C 16.09375 -9.664062 15.921875 -7.785156 15.578125 -6.265625 C 15.234375 -4.742188 14.75 -3.515625 14.125 -2.578125 C 13.5 -1.648438 12.71875 -0.988281 11.78125 -0.59375 C 10.851562 -0.195312 9.816406 0 8.671875 0 Z M 8.671875 -1.96875 C 9.242188 -1.96875 9.738281 -2.238281 10.15625 -2.78125 C 10.582031 -3.332031 10.9375 -4.050781 11.21875 -4.9375 C 11.507812 -5.832031 11.722656 -6.851562 11.859375 -8 C 12.003906 -9.15625 12.078125 -10.332031 12.078125 -11.53125 C 12.078125 -12.789062 12 -14.035156 11.84375 -15.265625 C 11.695312 -16.503906 11.476562 -17.609375 11.1875 -18.578125 C 10.90625 -19.546875 10.550781 -20.320312 10.125 -20.90625 C 9.695312 -21.5 9.210938 -21.796875 8.671875 -21.796875 C 8.117188 -21.796875 7.628906 -21.5 7.203125 -20.90625 C 6.773438 -20.320312 6.414062 -19.550781 6.125 -18.59375 C 5.84375 -17.644531 5.625 -16.566406 5.46875 -15.359375 C 5.320312 -14.148438 5.25 -12.914062 5.25 -11.65625 C 5.25 -10.425781 5.316406 -9.226562 5.453125 -8.0625 C 5.597656 -6.90625 5.8125 -5.875 6.09375 -4.96875 C 6.382812 -4.0625 6.738281 -3.332031 7.15625 -2.78125 C 7.582031 -2.238281 8.085938 -1.96875 8.671875 -1.96875 Z M 8.671875 -1.96875 "/></g></g></g><g fill="#54331e" fill-opacity="1"><g transform="translate(243.282459, 233.568193)"><g><path d="M 2.625 -20.8125 L 1.640625 -23.78125 L 6.609375 -23.78125 C 7.753906 -23.78125 8.757812 -23.660156 9.625 -23.421875 C 10.488281 -23.191406 11.210938 -22.804688 11.796875 -22.265625 C 12.390625 -21.734375 12.828125 -21.023438 13.109375 -20.140625 C 13.398438 -19.253906 13.546875 -18.148438 13.546875 -16.828125 C 13.546875 -15.210938 13.328125 -13.925781 12.890625 -12.96875 C 12.453125 -12.007812 11.796875 -11.285156 10.921875 -10.796875 L 13.546875 0 L 9.5625 0 L 7.1875 -9.9375 C 7.050781 -9.90625 6.859375 -9.890625 6.609375 -9.890625 L 6.609375 0 L 2.625 0 Z M 6.609375 -11.828125 C 7.265625 -11.828125 7.804688 -11.96875 8.234375 -12.25 C 8.660156 -12.539062 8.992188 -12.925781 9.234375 -13.40625 C 9.484375 -13.882812 9.65625 -14.414062 9.75 -15 C 9.84375 -15.59375 9.890625 -16.203125 9.890625 -16.828125 C 9.890625 -17.460938 9.84375 -18.070312 9.75 -18.65625 C 9.65625 -19.25 9.484375 -19.785156 9.234375 -20.265625 C 8.992188 -20.742188 8.660156 -21.125 8.234375 -21.40625 C 7.804688 -21.695312 7.265625 -21.859375 6.609375 -21.890625 Z M 6.609375 -11.828125 "/></g></g></g><g fill="#54331e" fill-opacity="1"><g transform="translate(258.30704, 233.568193)"><g><path d="M 2.265625 -23.78125 L 6.234375 -23.78125 L 6.234375 -11.90625 C 6.347656 -12.125 6.5625 -12.546875 6.875 -13.171875 C 7.1875 -13.804688 7.546875 -14.539062 7.953125 -15.375 C 8.367188 -16.207031 8.8125 -17.082031 9.28125 -18 C 9.75 -18.914062 10.179688 -19.773438 10.578125 -20.578125 C 10.972656 -21.390625 11.3125 -22.082031 11.59375 -22.65625 C 11.882812 -23.238281 12.070312 -23.613281 12.15625 -23.78125 L 14.171875 -23.78125 L 9.40625 -14.25 L 14.171875 0 L 10.1875 0 L 7.015625 -9.53125 L 6.234375 -7.921875 L 6.234375 0 L 2.265625 0 Z M 2.265625 -23.78125 "/></g></g></g><g fill="#54331e" fill-opacity="1"><g transform="translate(273.536859, 233.568193)"><g><path d="M 5.75 0 C 5.09375 0 4.492188 -0.132812 3.953125 -0.40625 C 3.421875 -0.6875 2.96875 -0.992188 2.59375 -1.328125 C 2.226562 -1.671875 1.9375 -2.015625 1.71875 -2.359375 C 1.5 -2.703125 1.347656 -2.941406 1.265625 -3.078125 L 2.875 -4.390625 C 3.0625 -4.117188 3.265625 -3.890625 3.484375 -3.703125 C 3.679688 -3.535156 3.890625 -3.378906 4.109375 -3.234375 C 4.328125 -3.097656 4.570312 -3.03125 4.84375 -3.03125 C 5.394531 -3.03125 5.828125 -3.285156 6.140625 -3.796875 C 6.453125 -4.304688 6.609375 -4.914062 6.609375 -5.625 C 6.609375 -5.789062 6.609375 -5.945312 6.609375 -6.09375 C 6.609375 -6.25 6.582031 -6.40625 6.53125 -6.5625 C 6.3125 -7.46875 5.910156 -8.351562 5.328125 -9.21875 C 4.753906 -10.082031 4.160156 -10.972656 3.546875 -11.890625 C 2.929688 -12.804688 2.390625 -13.769531 1.921875 -14.78125 C 1.460938 -15.789062 1.234375 -16.898438 1.234375 -18.109375 C 1.203125 -18.953125 1.3125 -19.722656 1.5625 -20.421875 C 1.8125 -21.117188 2.15625 -21.710938 2.59375 -22.203125 C 3.03125 -22.703125 3.546875 -23.085938 4.140625 -23.359375 C 4.742188 -23.640625 5.390625 -23.78125 6.078125 -23.78125 C 6.734375 -23.78125 7.328125 -23.640625 7.859375 -23.359375 C 8.398438 -23.085938 8.851562 -22.78125 9.21875 -22.4375 C 9.582031 -22.09375 9.875 -21.75 10.09375 -21.40625 C 10.320312 -21.070312 10.472656 -20.835938 10.546875 -20.703125 L 8.953125 -19.375 C 8.953125 -19.375 8.894531 -19.441406 8.78125 -19.578125 C 8.675781 -19.722656 8.523438 -19.882812 8.328125 -20.0625 C 8.140625 -20.238281 7.925781 -20.394531 7.6875 -20.53125 C 7.457031 -20.664062 7.207031 -20.734375 6.9375 -20.734375 C 6.394531 -20.734375 5.960938 -20.492188 5.640625 -20.015625 C 5.328125 -19.535156 5.171875 -18.941406 5.171875 -18.234375 C 5.171875 -17.878906 5.210938 -17.535156 5.296875 -17.203125 C 5.515625 -16.296875 5.910156 -15.410156 6.484375 -14.546875 C 7.054688 -13.691406 7.648438 -12.804688 8.265625 -11.890625 C 8.890625 -10.972656 9.429688 -10.003906 9.890625 -8.984375 C 10.359375 -7.972656 10.59375 -6.867188 10.59375 -5.671875 C 10.625 -4.816406 10.515625 -4.039062 10.265625 -3.34375 C 10.015625 -2.644531 9.664062 -2.050781 9.21875 -1.5625 C 8.769531 -1.070312 8.242188 -0.6875 7.640625 -0.40625 C 7.035156 -0.132812 6.40625 0 5.75 0 Z M 5.75 0 "/></g></g></g><g fill="#c0954f" fill-opacity="1"><g transform="translate(86.864596, 248.351537)"><g><path d="M 3.25 0.125 C 2.644531 0.125 2.109375 0.0078125 1.640625 -0.21875 C 1.179688 -0.457031 0.828125 -0.796875 0.578125 -1.234375 C 0.328125 -1.679688 0.203125 -2.203125 0.203125 -2.796875 C 0.203125 -3.390625 0.328125 -3.90625 0.578125 -4.34375 C 0.828125 -4.78125 1.179688 -5.117188 1.640625 -5.359375 C 2.109375 -5.597656 2.644531 -5.71875 3.25 -5.71875 C 3.644531 -5.71875 4 -5.675781 4.3125 -5.59375 C 4.632812 -5.507812 4.925781 -5.382812 5.1875 -5.21875 L 5.1875 -3.875 C 4.957031 -4.0625 4.691406 -4.195312 4.390625 -4.28125 C 4.097656 -4.363281 3.757812 -4.40625 3.375 -4.40625 C 2.820312 -4.40625 2.394531 -4.257812 2.09375 -3.96875 C 1.800781 -3.6875 1.65625 -3.296875 1.65625 -2.796875 C 1.65625 -2.285156 1.804688 -1.882812 2.109375 -1.59375 C 2.410156 -1.3125 2.832031 -1.171875 3.375 -1.171875 C 3.757812 -1.171875 4.101562 -1.210938 4.40625 -1.296875 C 4.707031 -1.390625 4.988281 -1.535156 5.25 -1.734375 L 5.25 -0.40625 C 4.75 -0.0507812 4.082031 0.125 3.25 0.125 Z M 3.25 0.125 "/></g></g></g><g fill="#c0954f" fill-opacity="1"><g transform="translate(95.520656, 248.351537)"><g><path d="M 3.203125 0.125 C 2.640625 0.125 2.128906 0.00390625 1.671875 -0.234375 C 1.210938 -0.484375 0.851562 -0.828125 0.59375 -1.265625 C 0.332031 -1.710938 0.203125 -2.222656 0.203125 -2.796875 C 0.203125 -3.359375 0.332031 -3.859375 0.59375 -4.296875 C 0.851562 -4.742188 1.210938 -5.09375 1.671875 -5.34375 C 2.128906 -5.59375 2.640625 -5.71875 3.203125 -5.71875 C 3.765625 -5.71875 4.273438 -5.59375 4.734375 -5.34375 C 5.191406 -5.09375 5.550781 -4.742188 5.8125 -4.296875 C 6.070312 -3.859375 6.203125 -3.359375 6.203125 -2.796875 C 6.203125 -2.222656 6.070312 -1.710938 5.8125 -1.265625 C 5.550781 -0.828125 5.191406 -0.484375 4.734375 -0.234375 C 4.273438 0.00390625 3.765625 0.125 3.203125 0.125 Z M 3.203125 -1.203125 C 3.484375 -1.203125 3.742188 -1.265625 3.984375 -1.390625 C 4.222656 -1.523438 4.410156 -1.710938 4.546875 -1.953125 C 4.679688 -2.191406 4.75 -2.472656 4.75 -2.796875 C 4.75 -3.109375 4.679688 -3.382812 4.546875 -3.625 C 4.410156 -3.863281 4.222656 -4.046875 3.984375 -4.171875 C 3.753906 -4.304688 3.492188 -4.375 3.203125 -4.375 C 2.910156 -4.375 2.644531 -4.304688 2.40625 -4.171875 C 2.175781 -4.046875 1.992188 -3.863281 1.859375 -3.625 C 1.722656 -3.382812 1.65625 -3.109375 1.65625 -2.796875 C 1.65625 -2.472656 1.722656 -2.191406 1.859375 -1.953125 C 1.992188 -1.710938 2.179688 -1.523438 2.421875 -1.390625 C 2.660156 -1.265625 2.921875 -1.203125 3.203125 -1.203125 Z M 3.203125 -1.203125 "/></g></g></g><g fill="#c0954f" fill-opacity="1"><g transform="translate(105.12073, 248.351537)"><g><path d="M 0.359375 -5.59375 L 1.765625 -5.59375 L 3.8125 -2.265625 L 3.8125 -5.59375 L 5.234375 -5.59375 L 5.234375 0 L 3.84375 0 L 1.78125 -3.34375 L 1.78125 0 L 0.359375 0 Z M 0.359375 -5.59375 "/></g></g></g><g fill="#c0954f" fill-opacity="1"><g transform="translate(113.912798, 248.351537)"><g><path d="M 2.109375 0.125 C 1.753906 0.125 1.398438 0.0859375 1.046875 0.015625 C 0.703125 -0.046875 0.421875 -0.132812 0.203125 -0.25 L 0.203125 -1.53125 C 0.484375 -1.375 0.78125 -1.257812 1.09375 -1.1875 C 1.40625 -1.113281 1.703125 -1.078125 1.984375 -1.078125 C 2.253906 -1.078125 2.453125 -1.113281 2.578125 -1.1875 C 2.710938 -1.269531 2.78125 -1.390625 2.78125 -1.546875 C 2.78125 -1.660156 2.742188 -1.753906 2.671875 -1.828125 C 2.597656 -1.910156 2.492188 -1.988281 2.359375 -2.0625 C 2.222656 -2.132812 2.007812 -2.234375 1.71875 -2.359375 C 1.195312 -2.578125 0.816406 -2.816406 0.578125 -3.078125 C 0.347656 -3.347656 0.234375 -3.675781 0.234375 -4.0625 C 0.234375 -4.382812 0.320312 -4.671875 0.5 -4.921875 C 0.675781 -5.171875 0.925781 -5.363281 1.25 -5.5 C 1.570312 -5.644531 1.941406 -5.71875 2.359375 -5.71875 C 2.691406 -5.71875 2.988281 -5.6875 3.25 -5.625 C 3.519531 -5.570312 3.78125 -5.488281 4.03125 -5.375 L 4.03125 -4.140625 C 3.5625 -4.378906 3.085938 -4.5 2.609375 -4.5 C 2.359375 -4.5 2.15625 -4.457031 2 -4.375 C 1.851562 -4.289062 1.78125 -4.175781 1.78125 -4.03125 C 1.78125 -3.875 1.851562 -3.742188 2 -3.640625 C 2.15625 -3.546875 2.441406 -3.414062 2.859375 -3.25 C 3.242188 -3.101562 3.539062 -2.953125 3.75 -2.796875 C 3.957031 -2.648438 4.109375 -2.476562 4.203125 -2.28125 C 4.304688 -2.082031 4.359375 -1.832031 4.359375 -1.53125 C 4.359375 -1.007812 4.164062 -0.601562 3.78125 -0.3125 C 3.40625 -0.0195312 2.847656 0.125 2.109375 0.125 Z M 2.109375 0.125 "/></g></g></g><g fill="#c0954f" fill-opacity="1"><g transform="translate(121.664853, 248.351537)"><g><path d="M 1.65625 -4.40625 L 0.078125 -4.40625 L 0.078125 -5.59375 L 4.65625 -5.59375 L 4.65625 -4.40625 L 3.078125 -4.40625 L 3.078125 0 L 1.65625 0 Z M 1.65625 -4.40625 "/></g></g></g><g fill="#c0954f" fill-opacity="1"><g transform="translate(129.60091, 248.351537)"><g><path d="M 0.359375 -5.59375 L 2.875 -5.59375 C 3.53125 -5.59375 4.039062 -5.425781 4.40625 -5.09375 C 4.78125 -4.757812 4.96875 -4.285156 4.96875 -3.671875 C 4.96875 -3.253906 4.875 -2.898438 4.6875 -2.609375 C 4.507812 -2.316406 4.253906 -2.097656 3.921875 -1.953125 L 4.921875 0 L 3.46875 0 L 2.578125 -1.75 L 1.78125 -1.75 L 1.78125 0 L 0.359375 0 Z M 2.625 -2.9375 C 2.90625 -2.9375 3.125 -2.988281 3.28125 -3.09375 C 3.4375 -3.207031 3.515625 -3.398438 3.515625 -3.671875 C 3.515625 -3.953125 3.4375 -4.144531 3.28125 -4.25 C 3.132812 -4.351562 2.914062 -4.40625 2.625 -4.40625 L 1.78125 -4.40625 L 1.78125 -2.9375 Z M 2.625 -2.9375 "/></g></g></g><g fill="#c0954f" fill-opacity="1"><g transform="translate(137.968977, 248.351537)"><g><path d="M 2.859375 0.125 C 2.015625 0.125 1.378906 -0.0976562 0.953125 -0.546875 C 0.523438 -1.003906 0.3125 -1.601562 0.3125 -2.34375 L 0.3125 -5.59375 L 1.734375 -5.59375 L 1.734375 -2.328125 C 1.734375 -1.953125 1.832031 -1.664062 2.03125 -1.46875 C 2.238281 -1.28125 2.515625 -1.1875 2.859375 -1.1875 C 3.210938 -1.1875 3.488281 -1.28125 3.6875 -1.46875 C 3.882812 -1.664062 3.984375 -1.953125 3.984375 -2.328125 L 3.984375 -5.59375 L 5.40625 -5.59375 L 5.40625 -2.34375 C 5.40625 -1.59375 5.191406 -0.992188 4.765625 -0.546875 C 4.335938 -0.0976562 3.703125 0.125 2.859375 0.125 Z M 2.859375 0.125 "/></g></g></g><g fill="#c0954f" fill-opacity="1"><g transform="translate(146.889048, 248.351537)"><g><path d="M 3.25 0.125 C 2.644531 0.125 2.109375 0.0078125 1.640625 -0.21875 C 1.179688 -0.457031 0.828125 -0.796875 0.578125 -1.234375 C 0.328125 -1.679688 0.203125 -2.203125 0.203125 -2.796875 C 0.203125 -3.390625 0.328125 -3.90625 0.578125 -4.34375 C 0.828125 -4.78125 1.179688 -5.117188 1.640625 -5.359375 C 2.109375 -5.597656 2.644531 -5.71875 3.25 -5.71875 C 3.644531 -5.71875 4 -5.675781 4.3125 -5.59375 C 4.632812 -5.507812 4.925781 -5.382812 5.1875 -5.21875 L 5.1875 -3.875 C 4.957031 -4.0625 4.691406 -4.195312 4.390625 -4.28125 C 4.097656 -4.363281 3.757812 -4.40625 3.375 -4.40625 C 2.820312 -4.40625 2.394531 -4.257812 2.09375 -3.96875 C 1.800781 -3.6875 1.65625 -3.296875 1.65625 -2.796875 C 1.65625 -2.285156 1.804688 -1.882812 2.109375 -1.59375 C 2.410156 -1.3125 2.832031 -1.171875 3.375 -1.171875 C 3.757812 -1.171875 4.101562 -1.210938 4.40625 -1.296875 C 4.707031 -1.390625 4.988281 -1.535156 5.25 -1.734375 L 5.25 -0.40625 C 4.75 -0.0507812 4.082031 0.125 3.25 0.125 Z M 3.25 0.125 "/></g></g></g><g fill="#c0954f" fill-opacity="1"><g transform="translate(155.54511, 248.351537)"><g><path d="M 1.65625 -4.40625 L 0.078125 -4.40625 L 0.078125 -5.59375 L 4.65625 -5.59375 L 4.65625 -4.40625 L 3.078125 -4.40625 L 3.078125 0 L 1.65625 0 Z M 1.65625 -4.40625 "/></g></g></g><g fill="#c0954f" fill-opacity="1"><g transform="translate(163.481169, 248.351537)"><g><path d="M 0.359375 -5.59375 L 1.78125 -5.59375 L 1.78125 0 L 0.359375 0 Z M 0.359375 -5.59375 "/></g></g></g><g fill="#c0954f" fill-opacity="1"><g transform="translate(168.817204, 248.351537)"><g><path d="M 3.203125 0.125 C 2.640625 0.125 2.128906 0.00390625 1.671875 -0.234375 C 1.210938 -0.484375 0.851562 -0.828125 0.59375 -1.265625 C 0.332031 -1.710938 0.203125 -2.222656 0.203125 -2.796875 C 0.203125 -3.359375 0.332031 -3.859375 0.59375 -4.296875 C 0.851562 -4.742188 1.210938 -5.09375 1.671875 -5.34375 C 2.128906 -5.59375 2.640625 -5.71875 3.203125 -5.71875 C 3.765625 -5.71875 4.273438 -5.59375 4.734375 -5.34375 C 5.191406 -5.09375 5.550781 -4.742188 5.8125 -4.296875 C 6.070312 -3.859375 6.203125 -3.359375 6.203125 -2.796875 C 6.203125 -2.222656 6.070312 -1.710938 5.8125 -1.265625 C 5.550781 -0.828125 5.191406 -0.484375 4.734375 -0.234375 C 4.273438 0.00390625 3.765625 0.125 3.203125 0.125 Z M 3.203125 -1.203125 C 3.484375 -1.203125 3.742188 -1.265625 3.984375 -1.390625 C 4.222656 -1.523438 4.410156 -1.710938 4.546875 -1.953125 C 4.679688 -2.191406 4.75 -2.472656 4.75 -2.796875 C 4.75 -3.109375 4.679688 -3.382812 4.546875 -3.625 C 4.410156 -3.863281 4.222656 -4.046875 3.984375 -4.171875 C 3.753906 -4.304688 3.492188 -4.375 3.203125 -4.375 C 2.910156 -4.375 2.644531 -4.304688 2.40625 -4.171875 C 2.175781 -4.046875 1.992188 -3.863281 1.859375 -3.625 C 1.722656 -3.382812 1.65625 -3.109375 1.65625 -2.796875 C 1.65625 -2.472656 1.722656 -2.191406 1.859375 -1.953125 C 1.992188 -1.710938 2.179688 -1.523438 2.421875 -1.390625 C 2.660156 -1.265625 2.921875 -1.203125 3.203125 -1.203125 Z M 3.203125 -1.203125 "/></g></g></g><g fill="#c0954f" fill-opacity="1"><g transform="translate(178.417279, 248.351537)"><g><path d="M 0.359375 -5.59375 L 1.765625 -5.59375 L 3.8125 -2.265625 L 3.8125 -5.59375 L 5.234375 -5.59375 L 5.234375 0 L 3.84375 0 L 1.78125 -3.34375 L 1.78125 0 L 0.359375 0 Z M 0.359375 -5.59375 "/></g></g></g><g fill="#c0954f" fill-opacity="1"><g transform="translate(187.209349, 248.351537)"><g/></g></g><g fill="#c0954f" fill-opacity="1"><g transform="translate(193.12939, 248.351537)"><g><path d="M 2.25 0.125 C 1.632812 0.125 1.140625 -0.015625 0.765625 -0.296875 C 0.390625 -0.578125 0.203125 -0.960938 0.203125 -1.453125 C 0.203125 -1.796875 0.285156 -2.09375 0.453125 -2.34375 C 0.617188 -2.59375 0.882812 -2.832031 1.25 -3.0625 C 1.039062 -3.257812 0.882812 -3.453125 0.78125 -3.640625 C 0.6875 -3.835938 0.640625 -4.0625 0.640625 -4.3125 C 0.640625 -4.582031 0.707031 -4.820312 0.84375 -5.03125 C 0.988281 -5.25 1.191406 -5.414062 1.453125 -5.53125 C 1.710938 -5.65625 2.019531 -5.71875 2.375 -5.71875 C 2.71875 -5.71875 3.015625 -5.65625 3.265625 -5.53125 C 3.515625 -5.40625 3.707031 -5.238281 3.84375 -5.03125 C 3.988281 -4.820312 4.0625 -4.582031 4.0625 -4.3125 C 4.0625 -4.007812 3.992188 -3.753906 3.859375 -3.546875 C 3.722656 -3.335938 3.5 -3.128906 3.1875 -2.921875 L 4.171875 -1.96875 C 4.273438 -2.164062 4.328125 -2.488281 4.328125 -2.9375 L 5.53125 -2.9375 C 5.53125 -2.507812 5.5 -2.160156 5.4375 -1.890625 C 5.382812 -1.617188 5.28125 -1.347656 5.125 -1.078125 L 6.234375 0 L 4.515625 0 L 4.09375 -0.390625 C 3.894531 -0.210938 3.644531 -0.0820312 3.34375 0 C 3.039062 0.0820312 2.675781 0.125 2.25 0.125 Z M 2.34375 -3.546875 C 2.53125 -3.671875 2.660156 -3.78125 2.734375 -3.875 C 2.804688 -3.96875 2.84375 -4.082031 2.84375 -4.21875 C 2.84375 -4.375 2.800781 -4.492188 2.71875 -4.578125 C 2.632812 -4.660156 2.519531 -4.703125 2.375 -4.703125 C 2.226562 -4.703125 2.113281 -4.660156 2.03125 -4.578125 C 1.945312 -4.492188 1.90625 -4.375 1.90625 -4.21875 C 1.90625 -4.101562 1.9375 -4 2 -3.90625 C 2.0625 -3.8125 2.175781 -3.691406 2.34375 -3.546875 Z M 2.34375 -0.859375 C 2.757812 -0.859375 3.066406 -0.960938 3.265625 -1.171875 L 2.1875 -2.21875 C 1.96875 -2.113281 1.8125 -2.003906 1.71875 -1.890625 C 1.625 -1.773438 1.578125 -1.628906 1.578125 -1.453125 C 1.578125 -1.253906 1.648438 -1.101562 1.796875 -1 C 1.941406 -0.90625 2.125 -0.859375 2.34375 -0.859375 Z M 2.34375 -0.859375 "/></g></g></g><g fill="#c0954f" fill-opacity="1"><g transform="translate(202.681462, 248.351537)"><g/></g></g><g fill="#c0954f" fill-opacity="1"><g transform="translate(208.601503, 248.351537)"><g><path d="M 0.359375 -5.59375 L 4.328125 -5.59375 L 4.328125 -4.40625 L 1.78125 -4.40625 L 1.78125 -3.359375 L 3.640625 -3.359375 L 3.640625 -2.234375 L 1.78125 -2.234375 L 1.78125 -1.1875 L 4.328125 -1.1875 L 4.328125 0 L 0.359375 0 Z M 0.359375 -5.59375 "/></g></g></g><g fill="#c0954f" fill-opacity="1"><g transform="translate(216.329564, 248.351537)"><g><path d="M 2.21875 -2.796875 L 0.203125 -5.59375 L 1.828125 -5.59375 L 3.046875 -3.921875 L 4.25 -5.59375 L 5.875 -5.59375 L 3.84375 -2.796875 L 5.875 0 L 4.25 0 L 3.046875 -1.671875 L 1.828125 0 L 0.203125 0 Z M 2.21875 -2.796875 "/></g></g></g><g fill="#c0954f" fill-opacity="1"><g transform="translate(225.601635, 248.351537)"><g><path d="M 3.25 0.125 C 2.644531 0.125 2.109375 0.0078125 1.640625 -0.21875 C 1.179688 -0.457031 0.828125 -0.796875 0.578125 -1.234375 C 0.328125 -1.679688 0.203125 -2.203125 0.203125 -2.796875 C 0.203125 -3.390625 0.328125 -3.90625 0.578125 -4.34375 C 0.828125 -4.78125 1.179688 -5.117188 1.640625 -5.359375 C 2.109375 -5.597656 2.644531 -5.71875 3.25 -5.71875 C 3.644531 -5.71875 4 -5.675781 4.3125 -5.59375 C 4.632812 -5.507812 4.925781 -5.382812 5.1875 -5.21875 L 5.1875 -3.875 C 4.957031 -4.0625 4.691406 -4.195312 4.390625 -4.28125 C 4.097656 -4.363281 3.757812 -4.40625 3.375 -4.40625 C 2.820312 -4.40625 2.394531 -4.257812 2.09375 -3.96875 C 1.800781 -3.6875 1.65625 -3.296875 1.65625 -2.796875 C 1.65625 -2.285156 1.804688 -1.882812 2.109375 -1.59375 C 2.410156 -1.3125 2.832031 -1.171875 3.375 -1.171875 C 3.757812 -1.171875 4.101562 -1.210938 4.40625 -1.296875 C 4.707031 -1.390625 4.988281 -1.535156 5.25 -1.734375 L 5.25 -0.40625 C 4.75 -0.0507812 4.082031 0.125 3.25 0.125 Z M 3.25 0.125 "/></g></g></g><g fill="#c0954f" fill-opacity="1"><g transform="translate(234.257698, 248.351537)"><g><path d="M 2.4375 -5.59375 L 3.828125 -5.59375 L 6.0625 0 L 4.609375 0 L 4.171875 -1.15625 L 2.109375 -1.15625 L 1.65625 0 L 0.203125 0 Z M 3.8125 -2.234375 L 3.140625 -4.125 L 2.453125 -2.234375 Z M 3.8125 -2.234375 "/></g></g></g><g fill="#c0954f" fill-opacity="1"><g transform="translate(243.721777, 248.351537)"><g><path d="M 0.203125 -5.59375 L 1.71875 -5.59375 L 3.140625 -1.875 L 4.5625 -5.59375 L 6.0625 -5.59375 L 3.828125 0 L 2.4375 0 Z M 0.203125 -5.59375 "/></g></g></g><g fill="#c0954f" fill-opacity="1"><g transform="translate(253.185855, 248.351537)"><g><path d="M 2.4375 -5.59375 L 3.828125 -5.59375 L 6.0625 0 L 4.609375 0 L 4.171875 -1.15625 L 2.109375 -1.15625 L 1.65625 0 L 0.203125 0 Z M 3.8125 -2.234375 L 3.140625 -4.125 L 2.453125 -2.234375 Z M 3.8125 -2.234375 "/></g></g></g><g fill="#c0954f" fill-opacity="1"><g transform="translate(262.649934, 248.351537)"><g><path d="M 1.65625 -4.40625 L 0.078125 -4.40625 L 0.078125 -5.59375 L 4.65625 -5.59375 L 4.65625 -4.40625 L 3.078125 -4.40625 L 3.078125 0 L 1.65625 0 Z M 1.65625 -4.40625 "/></g></g></g><g fill="#c0954f" fill-opacity="1"><g transform="translate(270.585993, 248.351537)"><g><path d="M 0.359375 -5.59375 L 1.78125 -5.59375 L 1.78125 0 L 0.359375 0 Z M 0.359375 -5.59375 "/></g></g></g><g fill="#c0954f" fill-opacity="1"><g transform="translate(275.922028, 248.351537)"><g><path d="M 3.203125 0.125 C 2.640625 0.125 2.128906 0.00390625 1.671875 -0.234375 C 1.210938 -0.484375 0.851562 -0.828125 0.59375 -1.265625 C 0.332031 -1.710938 0.203125 -2.222656 0.203125 -2.796875 C 0.203125 -3.359375 0.332031 -3.859375 0.59375 -4.296875 C 0.851562 -4.742188 1.210938 -5.09375 1.671875 -5.34375 C 2.128906 -5.59375 2.640625 -5.71875 3.203125 -5.71875 C 3.765625 -5.71875 4.273438 -5.59375 4.734375 -5.34375 C 5.191406 -5.09375 5.550781 -4.742188 5.8125 -4.296875 C 6.070312 -3.859375 6.203125 -3.359375 6.203125 -2.796875 C 6.203125 -2.222656 6.070312 -1.710938 5.8125 -1.265625 C 5.550781 -0.828125 5.191406 -0.484375 4.734375 -0.234375 C 4.273438 0.00390625 3.765625 0.125 3.203125 0.125 Z M 3.203125 -1.203125 C 3.484375 -1.203125 3.742188 -1.265625 3.984375 -1.390625 C 4.222656 -1.523438 4.410156 -1.710938 4.546875 -1.953125 C 4.679688 -2.191406 4.75 -2.472656 4.75 -2.796875 C 4.75 -3.109375 4.679688 -3.382812 4.546875 -3.625 C 4.410156 -3.863281 4.222656 -4.046875 3.984375 -4.171875 C 3.753906 -4.304688 3.492188 -4.375 3.203125 -4.375 C 2.910156 -4.375 2.644531 -4.304688 2.40625 -4.171875 C 2.175781 -4.046875 1.992188 -3.863281 1.859375 -3.625 C 1.722656 -3.382812 1.65625 -3.109375 1.65625 -2.796875 C 1.65625 -2.472656 1.722656 -2.191406 1.859375 -1.953125 C 1.992188 -1.710938 2.179688 -1.523438 2.421875 -1.390625 C 2.660156 -1.265625 2.921875 -1.203125 3.203125 -1.203125 Z M 3.203125 -1.203125 "/></g></g></g><g fill="#c0954f" fill-opacity="1"><g transform="translate(285.522093, 248.351537)"><g><path d="M 0.359375 -5.59375 L 1.765625 -5.59375 L 3.8125 -2.265625 L 3.8125 -5.59375 L 5.234375 -5.59375 L 5.234375 0 L 3.84375 0 L 1.78125 -3.34375 L 1.78125 0 L 0.359375 0 Z M 0.359375 -5.59375 "/></g></g></g></svg>