<svg xmlns="http://www.w3.org/2000/svg" xmlns:xlink="http://www.w3.org/1999/xlink" width="500" zoomAndPan="magnify" viewBox="0 0 375 374.999991" height="500" preserveAspectRatio="xMidYMid meet" version="1.0"><defs><g/><clipPath id="6f92c68f95"><path d="M 109.296875 119.777344 L 232 119.777344 L 232 188.777344 L 109.296875 188.777344 Z M 109.296875 119.777344 " clip-rule="nonzero"/></clipPath><clipPath id="2897b03c23"><path d="M 141 119.777344 L 170 119.777344 L 170 173 L 141 173 Z M 141 119.777344 " clip-rule="nonzero"/></clipPath><clipPath id="67901fa639"><path d="M 109.296875 143 L 145 143 L 145 188.777344 L 109.296875 188.777344 Z M 109.296875 143 " clip-rule="nonzero"/></clipPath><clipPath id="6362d5e85c"><path d="M 188 160 L 212 160 L 212 188.777344 L 188 188.777344 Z M 188 160 " clip-rule="nonzero"/></clipPath><clipPath id="e12fd8b5e8"><path d="M 216 128 L 247 128 L 247 188.777344 L 216 188.777344 Z M 216 128 " clip-rule="nonzero"/></clipPath><clipPath id="f7de5fa488"><path d="M 236 128 L 266.046875 128 L 266.046875 188.777344 L 236 188.777344 Z M 236 128 " clip-rule="nonzero"/></clipPath></defs><g clip-path="url(#6f92c68f95)"><path fill="#000000" d="M 229.460938 188.777344 L 110.878906 188.777344 C 110.011719 188.777344 109.308594 188.074219 109.308594 187.210938 C 109.308594 186.5 109.777344 185.902344 110.421875 185.707031 L 153.863281 169.714844 L 165.953125 120.96875 C 166.15625 120.128906 167.007812 119.617188 167.847656 119.824219 C 168.320312 119.941406 168.691406 120.261719 168.886719 120.667969 L 183.753906 150.609375 C 184.109375 151.328125 183.859375 152.1875 183.203125 152.613281 L 161.425781 168.320312 L 209.582031 160.667969 L 216.753906 153.980469 C 217.386719 153.390625 218.378906 153.425781 218.96875 154.058594 C 219.132812 154.234375 219.246094 154.4375 219.316406 154.648438 L 230.933594 186.675781 C 231.226562 187.488281 230.808594 188.386719 229.992188 188.679688 C 229.816406 188.742188 229.636719 188.773438 229.460938 188.773438 Z M 119.671875 185.640625 L 227.226562 185.640625 L 217.15625 157.886719 L 211.371094 163.285156 L 211.367188 163.28125 C 211.148438 163.488281 210.867188 163.632812 210.546875 163.683594 L 155.59375 172.414062 Z M 167.964844 125.859375 L 157.730469 167.128906 L 180.355469 150.808594 Z M 167.964844 125.859375 " fill-opacity="1" fill-rule="nonzero"/></g><path fill="#000000" d="M 218.957031 154.046875 C 219.554688 154.671875 219.527344 155.664062 218.902344 156.257812 C 218.273438 156.855469 217.285156 156.832031 216.6875 156.203125 L 191.808594 130.066406 L 190.617188 145.050781 C 190.582031 145.484375 190.375 145.863281 190.066406 146.121094 L 183.429688 152.433594 C 182.800781 153.03125 181.8125 153.007812 181.214844 152.378906 C 180.617188 151.753906 180.644531 150.761719 181.269531 150.167969 L 187.535156 144.210938 L 188.957031 126.320312 L 188.960938 126.320312 C 188.988281 125.949219 189.152344 125.585938 189.441406 125.308594 C 190.070312 124.714844 191.0625 124.738281 191.65625 125.363281 Z M 218.957031 154.046875 " fill-opacity="1" fill-rule="nonzero"/><g clip-path="url(#2897b03c23)"><path fill="#000000" d="M 166.367188 120.234375 C 166.980469 119.625 167.972656 119.628906 168.582031 120.242188 C 169.191406 120.851562 169.191406 121.84375 168.578125 122.453125 L 144.929688 145.882812 L 156.59375 170.222656 C 156.96875 171 156.636719 171.933594 155.859375 172.304688 C 155.078125 172.679688 154.144531 172.347656 153.773438 171.570312 L 141.664062 146.304688 C 141.335938 145.707031 141.425781 144.945312 141.933594 144.441406 Z M 166.367188 120.234375 " fill-opacity="1" fill-rule="nonzero"/></g><g clip-path="url(#67901fa639)"><path fill="#000000" d="M 141.625 144.871094 C 142.003906 144.09375 142.9375 143.769531 143.71875 144.144531 C 144.496094 144.519531 144.824219 145.453125 144.449219 146.234375 L 132.386719 171.082031 C 132.285156 171.289062 132.148438 171.464844 131.980469 171.605469 L 111.882812 188.410156 C 111.21875 188.964844 110.230469 188.878906 109.675781 188.214844 C 109.121094 187.550781 109.207031 186.5625 109.871094 186.007812 L 129.714844 169.414062 Z M 141.625 144.871094 " fill-opacity="1" fill-rule="nonzero"/></g><g clip-path="url(#6362d5e85c)"><path fill="#000000" d="M 209.070312 161.167969 C 209.605469 160.488281 210.589844 160.371094 211.269531 160.90625 C 211.953125 161.441406 212.070312 162.425781 211.535156 163.105469 L 191.761719 188.175781 C 191.226562 188.859375 190.242188 188.976562 189.558594 188.441406 C 188.878906 187.90625 188.761719 186.921875 189.296875 186.242188 Z M 209.070312 161.167969 " fill-opacity="1" fill-rule="nonzero"/></g><g clip-path="url(#e12fd8b5e8)"><path fill="#000000" d="M 218.890625 156.273438 C 218.257812 156.859375 217.265625 156.824219 216.675781 156.191406 C 216.085938 155.558594 216.121094 154.570312 216.753906 153.980469 L 243.421875 129.222656 C 244.054688 128.632812 245.046875 128.671875 245.636719 129.304688 C 245.960938 129.652344 246.097656 130.109375 246.046875 130.546875 L 239.445312 187.355469 C 239.347656 188.1875 238.613281 188.796875 237.78125 188.738281 L 229.464844 188.773438 C 228.601562 188.773438 227.898438 188.078125 227.894531 187.214844 C 227.890625 186.351562 228.589844 185.648438 229.453125 185.644531 L 236.488281 185.617188 L 242.441406 134.40625 Z M 218.890625 156.273438 " fill-opacity="1" fill-rule="nonzero"/></g><g clip-path="url(#f7de5fa488)"><path fill="#000000" d="M 243.011719 130.890625 C 242.722656 130.074219 243.152344 129.179688 243.96875 128.890625 C 244.785156 128.605469 245.679688 129.03125 245.96875 129.847656 L 265.945312 186.328125 C 266.234375 187.144531 265.804688 188.039062 264.988281 188.324219 C 264.785156 188.394531 264.578125 188.421875 264.378906 188.410156 L 237.902344 188.738281 C 237.039062 188.75 236.332031 188.058594 236.320312 187.195312 C 236.3125 186.332031 237.003906 185.625 237.867188 185.613281 L 262.261719 185.3125 Z M 243.011719 130.890625 " fill-opacity="1" fill-rule="nonzero"/></g><g fill="#000000" fill-opacity="1"><g transform="translate(157.869572, 224.567413)"><g><path d="M 5.90625 -10.777344 C 5.90625 -11.058594 5.90625 -11.339844 5.90625 -11.625 C 5.90625 -11.90625 5.90625 -12.222656 5.90625 -12.503906 C 5.90625 -12.785156 5.96875 -13.070312 5.96875 -13.351562 C 5.96875 -13.636719 6.03125 -13.949219 6.03125 -14.230469 C 6.03125 -14.515625 5.96875 -14.796875 5.96875 -15.078125 C 5.96875 -15.363281 5.9375 -15.644531 5.9375 -15.929688 C 5.9375 -16.242188 5.96875 -16.523438 5.96875 -16.808594 C 5.96875 -17.089844 5.9375 -17.375 5.9375 -17.65625 C 5.9375 -17.96875 6.03125 -18.253906 6 -18.503906 C 5.96875 -18.851562 5.875 -19.132812 5.78125 -19.351562 C 5.65625 -19.636719 5.402344 -19.699219 5.089844 -19.761719 C 4.871094 -19.792969 4.585938 -19.855469 4.242188 -19.855469 C 3.925781 -19.855469 3.644531 -19.824219 3.425781 -19.792969 C 3.140625 -19.730469 2.890625 -19.699219 2.734375 -19.382812 C 2.640625 -19.195312 2.578125 -18.945312 2.542969 -18.566406 C 2.511719 -18.316406 2.511719 -18.035156 2.511719 -17.71875 C 2.511719 -17.4375 2.578125 -17.183594 2.578125 -16.902344 C 2.578125 -16.621094 2.578125 -16.335938 2.578125 -16.054688 C 2.542969 -15.769531 2.542969 -15.488281 2.542969 -15.207031 C 2.542969 -14.921875 2.480469 -14.640625 2.480469 -14.359375 C 2.480469 -14.105469 2.511719 -13.824219 2.511719 -13.539062 C 2.511719 -13.257812 2.542969 -12.976562 2.542969 -12.691406 C 2.542969 -12.410156 2.449219 -12.125 2.449219 -11.84375 C 2.449219 -11.5625 2.542969 -11.277344 2.542969 -10.996094 C 2.542969 -10.714844 2.511719 -10.429688 2.511719 -10.148438 C 2.511719 -9.863281 2.449219 -9.613281 2.449219 -9.332031 C 2.449219 -9.046875 2.511719 -8.765625 2.511719 -8.484375 C 2.511719 -8.199219 2.417969 -7.917969 2.417969 -7.632812 C 2.417969 -7.351562 2.417969 -7.101562 2.417969 -6.816406 C 2.417969 -6.535156 2.480469 -6.25 2.480469 -5.96875 C 2.480469 -5.6875 2.417969 -5.402344 2.417969 -5.121094 C 2.417969 -4.871094 2.480469 -4.585938 2.480469 -4.304688 C 2.480469 -4.019531 2.449219 -3.738281 2.449219 -3.457031 C 2.449219 -3.203125 2.386719 -2.921875 2.386719 -2.640625 C 2.386719 -2.386719 2.386719 -2.105469 2.355469 -1.757812 C 2.324219 -1.507812 2.324219 -1.226562 2.324219 -0.878906 C 2.292969 -0.472656 2.480469 -0.1875 2.765625 -0.0625 C 3.078125 0.125 3.519531 0.0625 3.707031 0.0625 C 3.988281 0.0625 4.304688 0.03125 4.585938 0.03125 C 4.902344 0 5.214844 -0.03125 5.464844 -0.09375 C 5.78125 -0.21875 5.96875 -0.378906 5.9375 -0.691406 C 5.90625 -0.941406 5.9375 -1.195312 5.9375 -1.445312 C 5.9375 -1.695312 5.90625 -1.949219 5.90625 -2.167969 C 5.90625 -2.417969 6 -2.671875 6 -2.921875 C 6 -3.203125 5.96875 -3.488281 5.96875 -3.769531 C 5.96875 -4.085938 6 -4.367188 6 -4.648438 C 6 -4.964844 5.96875 -5.246094 5.96875 -5.53125 C 5.96875 -5.8125 5.96875 -6.125 5.96875 -6.410156 C 5.96875 -6.691406 5.96875 -7.007812 5.96875 -7.289062 C 5.96875 -7.570312 5.96875 -7.886719 5.96875 -8.167969 C 5.96875 -8.449219 5.96875 -8.734375 5.96875 -9.046875 C 5.96875 -9.332031 6.03125 -9.613281 6.03125 -9.925781 C 6.03125 -10.179688 5.90625 -10.492188 5.90625 -10.777344 Z M 5.90625 -10.777344 "/></g></g></g><g fill="#000000" fill-opacity="1"><g transform="translate(174.173195, 224.567413)"><g><path d="M 8.417969 -6.816406 C 8.324219 -7.039062 8.261719 -7.351562 8.167969 -7.632812 C 8.074219 -7.886719 7.949219 -8.167969 7.855469 -8.449219 C 7.761719 -8.734375 7.632812 -8.984375 7.539062 -9.269531 C 7.445312 -9.550781 7.414062 -9.863281 7.320312 -10.117188 C 7.226562 -10.429688 7.164062 -10.714844 7.070312 -10.964844 C 6.972656 -11.277344 6.847656 -11.53125 6.753906 -11.75 C 6.691406 -12 6.597656 -12.285156 6.535156 -12.535156 C 6.441406 -12.785156 6.410156 -13.070312 6.316406 -13.351562 C 6.21875 -13.601562 6.125 -13.855469 6.03125 -14.105469 C 5.96875 -14.390625 5.84375 -14.640625 5.75 -14.890625 C 5.65625 -15.144531 5.53125 -15.394531 5.464844 -15.644531 C 5.371094 -15.929688 5.308594 -16.179688 5.246094 -16.460938 C 5.152344 -16.714844 5.058594 -16.964844 4.964844 -17.214844 C 4.871094 -17.5 4.808594 -17.75 4.710938 -18 C 4.617188 -18.285156 4.492188 -18.503906 4.398438 -18.753906 C 4.304688 -19.039062 4.242188 -19.289062 4.148438 -19.542969 C 4.019531 -19.824219 3.738281 -19.824219 3.363281 -19.824219 C 3.046875 -19.824219 2.703125 -19.886719 2.449219 -19.917969 C 2.011719 -19.949219 1.632812 -19.949219 1.382812 -19.824219 C 1.066406 -19.699219 0.847656 -19.414062 0.878906 -18.945312 C 0.878906 -18.820312 0.910156 -18.535156 1.003906 -18.222656 C 1.066406 -17.96875 1.226562 -17.75 1.289062 -17.5 C 1.414062 -17.183594 1.507812 -16.902344 1.539062 -16.777344 C 1.632812 -16.523438 1.757812 -16.273438 1.855469 -16.023438 C 1.949219 -15.738281 2.011719 -15.488281 2.105469 -15.207031 C 2.199219 -14.953125 2.292969 -14.703125 2.386719 -14.421875 C 2.480469 -14.167969 2.480469 -13.886719 2.578125 -13.636719 C 2.671875 -13.351562 2.796875 -13.101562 2.890625 -12.847656 C 2.984375 -12.597656 3.015625 -12.316406 3.109375 -12.03125 C 3.203125 -11.78125 3.394531 -11.5625 3.488281 -11.277344 C 3.582031 -11.027344 3.675781 -10.777344 3.769531 -10.492188 C 3.863281 -10.242188 3.863281 -9.960938 3.957031 -9.707031 C 4.054688 -9.425781 4.210938 -9.207031 4.304688 -8.921875 C 4.367188 -8.671875 4.492188 -8.417969 4.585938 -8.136719 C 4.679688 -7.886719 4.742188 -7.601562 4.839844 -7.351562 C 4.933594 -7.101562 4.996094 -6.816406 5.089844 -6.566406 C 5.183594 -6.316406 5.339844 -6.0625 5.433594 -5.78125 C 5.53125 -5.53125 5.53125 -5.246094 5.625 -4.996094 C 5.71875 -4.710938 5.84375 -4.460938 5.9375 -4.210938 C 6.03125 -3.957031 6.09375 -3.675781 6.1875 -3.425781 C 6.285156 -3.140625 6.378906 -2.890625 6.472656 -2.640625 C 6.566406 -2.386719 6.722656 -2.136719 6.816406 -1.855469 C 6.910156 -1.601562 6.972656 -1.351562 7.070312 -1.066406 C 7.195312 -0.753906 7.320312 -0.503906 7.507812 -0.34375 C 7.695312 -0.15625 7.980469 -0.125 8.324219 -0.09375 C 8.578125 -0.0625 8.828125 0 9.207031 0 C 9.550781 0 9.800781 -0.03125 10.023438 -0.09375 C 10.367188 -0.15625 10.585938 -0.25 10.777344 -0.472656 C 10.902344 -0.660156 11.027344 -0.941406 11.121094 -1.257812 C 11.214844 -1.507812 11.308594 -1.789062 11.402344 -2.042969 C 11.46875 -2.324219 11.53125 -2.578125 11.625 -2.859375 C 11.71875 -3.109375 11.84375 -3.363281 11.9375 -3.644531 C 12.03125 -3.894531 12 -4.210938 12.09375 -4.460938 C 12.191406 -4.742188 12.316406 -4.996094 12.378906 -5.277344 C 12.472656 -5.53125 12.535156 -5.8125 12.628906 -6.0625 C 12.722656 -6.347656 12.847656 -6.597656 12.945312 -6.878906 C 13.039062 -7.132812 13.070312 -7.414062 13.164062 -7.664062 C 13.257812 -7.949219 13.351562 -8.230469 13.414062 -8.484375 C 13.507812 -8.765625 13.636719 -9.015625 13.730469 -9.269531 C 13.824219 -9.550781 13.886719 -9.832031 13.949219 -10.085938 C 14.042969 -10.367188 14.136719 -10.617188 14.230469 -10.902344 C 14.324219 -11.152344 14.453125 -11.402344 14.546875 -11.6875 C 14.640625 -11.9375 14.671875 -12.222656 14.765625 -12.472656 C 14.859375 -12.753906 14.890625 -13.039062 14.984375 -13.289062 C 15.078125 -13.570312 15.207031 -13.824219 15.269531 -14.074219 C 15.363281 -14.324219 15.457031 -14.609375 15.550781 -14.859375 C 15.644531 -15.144531 15.707031 -15.394531 15.769531 -15.675781 C 15.867188 -15.929688 15.898438 -16.210938 15.992188 -16.492188 C 16.085938 -16.746094 16.210938 -16.996094 16.273438 -17.277344 C 16.367188 -17.53125 16.492188 -17.78125 16.589844 -18.066406 C 16.714844 -18.472656 16.777344 -18.789062 16.808594 -19.039062 C 16.902344 -19.574219 16.746094 -19.792969 16.492188 -19.886719 C 16.242188 -19.949219 15.898438 -19.824219 15.519531 -19.824219 C 15.144531 -19.824219 14.859375 -19.886719 14.609375 -19.855469 C 14.324219 -19.792969 14.105469 -19.667969 13.886719 -19.414062 C 13.730469 -19.257812 13.539062 -19.039062 13.382812 -18.691406 C 13.289062 -18.472656 13.195312 -18.191406 13.070312 -17.84375 C 13.039062 -17.71875 12.914062 -17.375 12.816406 -17.058594 C 12.691406 -16.714844 12.566406 -16.398438 12.535156 -16.242188 C 12.441406 -15.992188 12.347656 -15.707031 12.285156 -15.457031 C 12.191406 -15.175781 12.160156 -14.890625 12.0625 -14.609375 C 11.96875 -14.359375 11.90625 -14.074219 11.8125 -13.824219 C 11.71875 -13.539062 11.625 -13.289062 11.53125 -13.007812 C 11.4375 -12.753906 11.308594 -12.503906 11.214844 -12.222656 C 11.121094 -11.96875 11.027344 -11.6875 10.933594 -11.4375 C 10.839844 -11.152344 10.746094 -10.902344 10.648438 -10.648438 C 10.554688 -10.367188 10.523438 -10.085938 10.429688 -9.832031 C 10.367188 -9.644531 10.210938 -9.394531 10.117188 -9.078125 C 10.023438 -8.828125 9.925781 -8.578125 9.832031 -8.292969 C 9.769531 -8.042969 9.675781 -7.761719 9.582031 -7.507812 C 9.488281 -7.226562 9.457031 -6.941406 9.363281 -6.722656 C 9.207031 -6.316406 8.984375 -6.03125 8.890625 -6.03125 C 8.796875 -6.0625 8.609375 -6.378906 8.417969 -6.816406 Z M 8.417969 -6.816406 "/></g></g></g><g fill="#000000" fill-opacity="1"><g transform="translate(199.742744, 224.567413)"><g><path d="M 7.664062 -14.324219 C 7.539062 -14.578125 7.445312 -14.859375 7.320312 -15.078125 C 7.132812 -15.394531 6.910156 -15.582031 6.785156 -15.738281 C 6.597656 -15.929688 6.410156 -16.148438 6.25 -16.367188 C 6.0625 -16.589844 5.96875 -16.839844 5.84375 -17.089844 C 5.6875 -17.3125 5.53125 -17.53125 5.433594 -17.78125 C 5.308594 -18.097656 5.183594 -18.347656 5.089844 -18.566406 C 4.933594 -18.851562 4.839844 -19.101562 4.710938 -19.257812 C 4.492188 -19.542969 4.304688 -19.699219 4.054688 -19.761719 C 3.832031 -19.855469 3.550781 -19.824219 3.234375 -19.824219 C 2.984375 -19.824219 2.734375 -19.917969 2.417969 -19.917969 C 2.105469 -19.917969 1.855469 -19.855469 1.601562 -19.855469 C 1.257812 -19.855469 0.941406 -19.824219 0.785156 -19.730469 C 0.597656 -19.574219 0.535156 -19.320312 0.628906 -18.914062 C 0.691406 -18.753906 0.910156 -18.472656 1.132812 -18.128906 C 1.257812 -17.875 1.445312 -17.59375 1.632812 -17.34375 C 1.789062 -17.058594 1.980469 -16.777344 2.136719 -16.558594 C 2.355469 -16.210938 2.609375 -15.960938 2.703125 -15.800781 C 2.859375 -15.613281 2.953125 -15.363281 3.109375 -15.113281 C 3.265625 -14.921875 3.425781 -14.703125 3.582031 -14.453125 C 3.707031 -14.230469 3.832031 -13.980469 3.988281 -13.761719 C 4.117188 -13.539062 4.273438 -13.320312 4.429688 -13.101562 C 4.585938 -12.847656 4.710938 -12.628906 4.871094 -12.410156 C 5.027344 -12.191406 5.183594 -11.96875 5.339844 -11.75 C 5.496094 -11.53125 5.59375 -11.277344 5.75 -11.058594 C 5.875 -10.902344 6.09375 -10.714844 6.21875 -10.460938 C 6.316406 -10.273438 6.410156 -10.023438 6.503906 -9.800781 C 6.628906 -9.519531 6.722656 -9.238281 6.722656 -9.078125 C 6.722656 -8.671875 6.660156 -8.417969 6.660156 -8.199219 C 6.660156 -7.886719 6.722656 -7.664062 6.691406 -7.351562 C 6.691406 -7.101562 6.691406 -6.847656 6.691406 -6.441406 C 6.660156 -6.15625 6.597656 -5.875 6.597656 -5.5625 C 6.566406 -5.246094 6.597656 -4.933594 6.566406 -4.648438 C 6.566406 -4.335938 6.535156 -4.019531 6.503906 -3.707031 C 6.503906 -3.425781 6.441406 -3.109375 6.410156 -2.796875 C 6.410156 -2.511719 6.441406 -2.199219 6.441406 -1.886719 C 6.441406 -1.570312 6.472656 -1.289062 6.503906 -1.003906 C 6.503906 -0.660156 6.566406 -0.441406 6.722656 -0.28125 C 6.878906 -0.125 7.132812 -0.03125 7.414062 0 C 7.632812 0.03125 7.917969 0.03125 8.199219 0.03125 C 8.484375 0.03125 8.796875 -0.03125 9.109375 -0.09375 C 9.425781 -0.125 9.738281 -0.15625 9.960938 -0.3125 C 10.242188 -0.472656 10.429688 -0.722656 10.429688 -1.066406 C 10.398438 -1.351562 10.367188 -1.601562 10.335938 -1.855469 C 10.335938 -2.074219 10.335938 -2.324219 10.335938 -2.640625 C 10.335938 -2.859375 10.273438 -3.109375 10.273438 -3.425781 C 10.273438 -3.675781 10.335938 -3.925781 10.335938 -4.210938 C 10.367188 -4.460938 10.335938 -4.710938 10.335938 -5.027344 C 10.367188 -5.308594 10.398438 -5.625 10.398438 -5.96875 C 10.367188 -6.285156 10.335938 -6.597656 10.304688 -6.910156 C 10.273438 -7.257812 10.242188 -7.570312 10.210938 -7.855469 C 10.179688 -8.230469 10.179688 -8.578125 10.179688 -8.796875 C 10.179688 -9.078125 10.242188 -9.363281 10.367188 -9.675781 C 10.492188 -9.960938 10.585938 -10.242188 10.746094 -10.554688 C 10.902344 -10.808594 11.058594 -11.058594 11.246094 -11.339844 C 11.4375 -11.59375 11.625 -11.8125 11.84375 -12.0625 C 12 -12.316406 12.253906 -12.535156 12.441406 -12.785156 C 12.566406 -12.914062 12.722656 -13.195312 12.976562 -13.507812 C 13.132812 -13.730469 13.289062 -13.980469 13.476562 -14.230469 C 13.667969 -14.453125 13.761719 -14.734375 13.949219 -14.984375 C 14.105469 -15.238281 14.324219 -15.457031 14.515625 -15.707031 C 14.671875 -15.960938 14.859375 -16.179688 15.015625 -16.429688 C 15.207031 -16.683594 15.363281 -16.933594 15.519531 -17.152344 C 15.707031 -17.4375 15.800781 -17.71875 15.929688 -17.9375 C 16.179688 -18.285156 16.335938 -18.535156 16.429688 -18.691406 C 16.714844 -19.101562 16.839844 -19.351562 16.746094 -19.511719 C 16.652344 -19.699219 16.367188 -19.824219 15.898438 -19.855469 C 15.644531 -19.886719 15.332031 -19.824219 14.953125 -19.824219 C 14.609375 -19.824219 14.324219 -19.949219 14.105469 -19.949219 C 13.730469 -19.949219 13.507812 -19.855469 13.289062 -19.667969 C 13.132812 -19.542969 12.976562 -19.320312 12.722656 -19.007812 C 12.597656 -18.820312 12.347656 -18.628906 12.160156 -18.347656 C 12 -18.160156 11.875 -17.90625 11.71875 -17.65625 C 11.59375 -17.4375 11.5 -17.183594 11.339844 -16.964844 C 11.214844 -16.746094 11.089844 -16.492188 10.964844 -16.242188 C 10.839844 -16.023438 10.648438 -15.835938 10.523438 -15.582031 C 10.398438 -15.363281 10.242188 -15.144531 10.117188 -14.890625 C 9.960938 -14.671875 9.894531 -14.390625 9.738281 -14.167969 C 9.582031 -13.949219 9.425781 -13.761719 9.269531 -13.539062 C 9.109375 -13.320312 8.890625 -13.257812 8.671875 -13.289062 C 8.417969 -13.289062 8.199219 -13.351562 8.074219 -13.570312 C 7.917969 -13.824219 7.792969 -14.074219 7.664062 -14.324219 Z M 7.664062 -14.324219 "/></g></g></g><g fill="#000000" fill-opacity="1"><g transform="translate(121.588832, 248.915075)"><g><path d="M 3.527344 -8.347656 C 3.691406 -8.347656 3.835938 -8.363281 3.996094 -8.363281 C 4.140625 -8.363281 4.285156 -8.332031 4.449219 -8.332031 C 4.59375 -8.332031 4.738281 -8.347656 4.898438 -8.347656 C 5.042969 -8.347656 5.207031 -8.332031 5.351562 -8.332031 C 5.496094 -8.332031 5.65625 -8.332031 5.800781 -8.332031 C 5.945312 -8.332031 6.109375 -8.363281 6.253906 -8.363281 C 6.398438 -8.363281 6.558594 -8.363281 6.703125 -8.363281 C 6.898438 -8.363281 7.058594 -8.347656 7.1875 -8.378906 C 7.363281 -8.410156 7.460938 -8.476562 7.542969 -8.636719 C 7.605469 -8.75 7.65625 -8.894531 7.671875 -9.105469 C 7.671875 -9.265625 7.6875 -9.425781 7.6875 -9.554688 C 7.6875 -9.734375 7.671875 -9.878906 7.574219 -9.992188 C 7.476562 -10.054688 7.363281 -10.152344 7.15625 -10.183594 C 7.027344 -10.199219 6.863281 -10.167969 6.6875 -10.167969 C 6.542969 -10.167969 6.398438 -10.183594 6.269531 -10.167969 C 6.125 -10.167969 5.980469 -10.21875 5.851562 -10.199219 C 5.703125 -10.199219 5.558594 -10.167969 5.414062 -10.167969 C 5.285156 -10.152344 5.140625 -10.136719 4.996094 -10.121094 C 4.867188 -10.121094 4.722656 -10.136719 4.578125 -10.136719 C 4.429688 -10.121094 4.269531 -10.089844 4.125 -10.089844 C 3.964844 -10.089844 3.804688 -10.089844 3.65625 -10.105469 C 3.496094 -10.105469 3.351562 -10.136719 3.191406 -10.152344 C 3.046875 -10.167969 2.882812 -10.167969 2.738281 -10.183594 C 2.578125 -10.183594 2.417969 -10.183594 2.273438 -10.183594 C 2.109375 -10.183594 1.964844 -10.234375 1.804688 -10.234375 C 1.644531 -10.234375 1.515625 -10.183594 1.355469 -10.167969 C 1.355469 -10.039062 1.335938 -9.910156 1.335938 -9.765625 C 1.335938 -9.621094 1.304688 -9.476562 1.289062 -9.332031 C 1.289062 -9.183594 1.320312 -9.039062 1.320312 -8.910156 C 1.320312 -8.765625 1.304688 -8.621094 1.304688 -8.476562 C 1.289062 -8.332031 1.289062 -8.1875 1.289062 -8.042969 C 1.289062 -7.894531 1.304688 -7.75 1.304688 -7.621094 C 1.304688 -7.476562 1.304688 -7.332031 1.304688 -7.1875 C 1.304688 -7.042969 1.257812 -6.898438 1.257812 -6.753906 C 1.257812 -6.625 1.289062 -6.476562 1.289062 -6.332031 C 1.289062 -6.1875 1.273438 -6.042969 1.273438 -5.898438 C 1.273438 -5.769531 1.304688 -5.625 1.289062 -5.480469 C 1.289062 -5.335938 1.242188 -5.1875 1.226562 -5.042969 C 1.226562 -4.914062 1.273438 -4.769531 1.257812 -4.625 C 1.257812 -4.480469 1.242188 -4.335938 1.226562 -4.207031 C 1.226562 -4.0625 1.242188 -3.914062 1.242188 -3.769531 C 1.242188 -3.625 1.242188 -3.480469 1.242188 -3.351562 C 1.242188 -3.207031 1.242188 -3.0625 1.242188 -2.917969 C 1.242188 -2.789062 1.226562 -2.644531 1.226562 -2.496094 C 1.207031 -2.351562 1.273438 -2.207031 1.273438 -2.0625 C 1.273438 -1.933594 1.226562 -1.789062 1.226562 -1.644531 C 1.226562 -1.5 1.257812 -1.355469 1.257812 -1.226562 C 1.257812 -1.078125 1.226562 -0.933594 1.226562 -0.789062 C 1.226562 -0.675781 1.335938 -0.5 1.484375 -0.355469 C 1.628906 -0.210938 1.804688 -0.113281 1.933594 -0.0976562 C 2.0625 -0.0976562 2.207031 -0.0820312 2.351562 -0.0820312 C 2.480469 -0.0664062 2.625 -0.0820312 2.773438 -0.0664062 C 2.902344 -0.0664062 3.046875 -0.015625 3.191406 0 C 3.320312 0 3.464844 -0.046875 3.609375 -0.046875 C 3.753906 -0.046875 3.882812 -0.03125 4.027344 -0.03125 C 4.171875 -0.03125 4.320312 0.015625 4.449219 0.03125 C 4.59375 0.03125 4.738281 -0.015625 4.867188 -0.015625 C 5.011719 0 5.15625 0.015625 5.300781 0.015625 C 5.429688 0.015625 5.574219 0.03125 5.722656 0.03125 C 5.851562 0.03125 5.996094 0.015625 6.140625 0.015625 C 6.285156 0.015625 6.414062 -0.015625 6.558594 -0.015625 C 6.703125 -0.015625 6.832031 0.015625 6.976562 0.015625 C 7.140625 0.015625 7.269531 -0.03125 7.347656 -0.113281 C 7.460938 -0.195312 7.492188 -0.304688 7.527344 -0.453125 C 7.542969 -0.5625 7.527344 -0.691406 7.476562 -0.820312 C 7.445312 -0.949219 7.414062 -1.078125 7.347656 -1.191406 C 7.269531 -1.320312 7.171875 -1.433594 7.089844 -1.53125 C 6.992188 -1.628906 6.882812 -1.691406 6.703125 -1.707031 C 6.558594 -1.722656 6.398438 -1.707031 6.238281 -1.707031 C 6.074219 -1.707031 5.914062 -1.742188 5.753906 -1.742188 C 5.59375 -1.742188 5.429688 -1.757812 5.269531 -1.757812 C 5.109375 -1.757812 4.964844 -1.722656 4.800781 -1.722656 C 4.640625 -1.722656 4.480469 -1.691406 4.320312 -1.707031 C 4.15625 -1.707031 4.011719 -1.707031 3.851562 -1.707031 C 3.691406 -1.707031 3.527344 -1.691406 3.382812 -1.691406 C 3.109375 -1.691406 3.125 -1.59375 2.949219 -1.742188 C 2.789062 -1.851562 2.882812 -1.871094 2.867188 -2.109375 C 2.867188 -2.222656 2.882812 -2.367188 2.882812 -2.515625 C 2.882812 -2.625 2.867188 -2.773438 2.867188 -2.902344 C 2.867188 -3.03125 2.867188 -3.175781 2.882812 -3.289062 C 2.882812 -3.433594 2.867188 -3.578125 2.882812 -3.722656 C 2.902344 -3.851562 2.917969 -3.980469 2.964844 -4.140625 C 3.09375 -4.140625 3.238281 -4.125 3.382812 -4.125 C 3.527344 -4.109375 3.675781 -4.125 3.804688 -4.125 C 3.949219 -4.125 4.09375 -4.109375 4.238281 -4.109375 C 4.382812 -4.109375 4.511719 -4.109375 4.65625 -4.109375 C 4.800781 -4.109375 4.929688 -4.125 5.078125 -4.140625 C 5.222656 -4.140625 5.351562 -4.125 5.496094 -4.125 C 5.65625 -4.125 5.785156 -4.171875 5.898438 -4.171875 C 6.058594 -4.191406 6.203125 -4.171875 6.300781 -4.222656 C 6.445312 -4.269531 6.542969 -4.367188 6.589844 -4.511719 C 6.625 -4.609375 6.574219 -4.753906 6.558594 -4.914062 C 6.558594 -5.027344 6.574219 -5.171875 6.542969 -5.316406 C 6.527344 -5.445312 6.496094 -5.59375 6.460938 -5.738281 C 6.316406 -5.753906 6.140625 -5.722656 5.996094 -5.722656 C 5.832031 -5.738281 5.6875 -5.769531 5.527344 -5.769531 C 5.367188 -5.769531 5.222656 -5.800781 5.058594 -5.800781 C 4.898438 -5.816406 4.753906 -5.769531 4.59375 -5.785156 C 4.429688 -5.800781 4.285156 -5.867188 4.125 -5.882812 C 4.011719 -5.882812 3.867188 -5.851562 3.738281 -5.851562 C 3.609375 -5.851562 3.480469 -5.867188 3.351562 -5.867188 C 3.125 -5.867188 3.078125 -5.703125 2.949219 -5.851562 C 2.804688 -6.011719 2.964844 -6.058594 2.949219 -6.300781 C 2.949219 -6.429688 2.917969 -6.589844 2.917969 -6.734375 C 2.917969 -6.882812 2.949219 -7.042969 2.949219 -7.171875 C 2.949219 -7.300781 2.964844 -7.414062 2.980469 -7.558594 C 2.996094 -7.671875 2.980469 -7.800781 2.996094 -7.945312 C 3.011719 -8.074219 3.0625 -8.1875 3.078125 -8.332031 C 3.238281 -8.332031 3.382812 -8.347656 3.527344 -8.347656 Z M 3.527344 -8.347656 "/></g></g></g><g fill="#000000" fill-opacity="1"><g transform="translate(134.64102, 248.915075)"><g><path d="M 3.253906 -1.355469 C 3.417969 -1.355469 3.578125 -1.371094 3.738281 -1.371094 C 3.898438 -1.371094 4.0625 -1.371094 4.207031 -1.371094 C 4.367188 -1.386719 4.527344 -1.371094 4.6875 -1.371094 C 4.800781 -1.386719 4.929688 -1.402344 5.058594 -1.402344 C 5.1875 -1.417969 5.316406 -1.402344 5.445312 -1.402344 C 5.59375 -1.417969 5.722656 -1.417969 5.816406 -1.417969 C 5.898438 -1.433594 5.980469 -1.371094 6.011719 -1.289062 C 6.042969 -1.175781 6.089844 -1 6.171875 -0.804688 C 6.21875 -0.660156 6.332031 -0.5 6.398438 -0.355469 C 6.445312 -0.175781 6.558594 -0.0976562 6.71875 -0.046875 C 6.847656 0 7.011719 0.046875 7.1875 0.046875 C 7.347656 0.046875 7.507812 0.015625 7.671875 0.015625 C 7.894531 0.015625 8.058594 -0.015625 8.171875 -0.0820312 C 8.332031 -0.144531 8.378906 -0.273438 8.28125 -0.515625 C 8.234375 -0.628906 8.171875 -0.757812 8.105469 -0.917969 C 8.058594 -1.046875 7.992188 -1.175781 7.929688 -1.320312 C 7.878906 -1.449219 7.847656 -1.59375 7.785156 -1.722656 C 7.734375 -1.871094 7.671875 -2 7.621094 -2.128906 C 7.558594 -2.273438 7.507812 -2.402344 7.445312 -2.53125 C 7.398438 -2.675781 7.363281 -2.820312 7.316406 -2.949219 C 7.25 -3.078125 7.171875 -3.207031 7.105469 -3.351562 C 7.058594 -3.480469 7.011719 -3.640625 6.960938 -3.769531 C 6.914062 -3.914062 6.882812 -4.0625 6.816406 -4.207031 C 6.769531 -4.351562 6.6875 -4.480469 6.625 -4.609375 C 6.574219 -4.753906 6.527344 -4.898438 6.476562 -5.042969 C 6.414062 -5.1875 6.367188 -5.316406 6.300781 -5.464844 C 6.253906 -5.609375 6.171875 -5.738281 6.125 -5.882812 C 6.074219 -6.011719 6.011719 -6.15625 5.945312 -6.300781 C 5.898438 -6.429688 5.867188 -6.589844 5.816406 -6.71875 C 5.769531 -6.863281 5.671875 -6.992188 5.609375 -7.140625 C 5.558594 -7.269531 5.511719 -7.414062 5.464844 -7.558594 C 5.398438 -7.703125 5.316406 -7.832031 5.269531 -7.960938 C 5.1875 -8.152344 5.140625 -8.316406 5.058594 -8.410156 C 4.929688 -8.539062 4.769531 -8.558594 4.59375 -8.574219 C 4.449219 -8.589844 4.285156 -8.589844 4.109375 -8.589844 C 3.980469 -8.574219 3.804688 -8.589844 3.609375 -8.476562 C 3.496094 -8.410156 3.367188 -8.300781 3.253906 -8.105469 C 3.191406 -7.976562 3.125 -7.816406 3.078125 -7.621094 C 3.03125 -7.476562 2.964844 -7.347656 2.917969 -7.21875 C 2.851562 -7.074219 2.851562 -6.929688 2.804688 -6.785156 C 2.753906 -6.65625 2.675781 -6.527344 2.625 -6.382812 C 2.5625 -6.253906 2.546875 -6.089844 2.496094 -5.960938 C 2.449219 -5.816406 2.367188 -5.6875 2.320312 -5.558594 C 2.273438 -5.414062 2.222656 -5.269531 2.175781 -5.140625 C 2.128906 -4.996094 2.09375 -4.851562 2.03125 -4.722656 C 1.980469 -4.578125 1.933594 -4.429688 1.886719 -4.300781 C 1.835938 -4.15625 1.789062 -4.011719 1.742188 -3.882812 C 1.691406 -3.738281 1.613281 -3.625 1.5625 -3.480469 C 1.515625 -3.335938 1.515625 -3.191406 1.464844 -3.046875 C 1.402344 -2.917969 1.355469 -2.773438 1.304688 -2.644531 C 1.257812 -2.496094 1.175781 -2.367188 1.128906 -2.238281 C 1.078125 -2.09375 1.0625 -1.949219 1.015625 -1.804688 C 0.96875 -1.675781 0.902344 -1.546875 0.855469 -1.402344 C 0.820312 -1.335938 0.757812 -1.191406 0.691406 -1.03125 C 0.644531 -0.902344 0.597656 -0.773438 0.5625 -0.644531 C 0.5 -0.484375 0.46875 -0.324219 0.46875 -0.257812 C 0.433594 -0.015625 0.515625 0.03125 0.710938 0.03125 C 0.820312 0.03125 0.984375 0.015625 1.175781 0.03125 C 1.257812 0.03125 1.402344 0.03125 1.546875 0.015625 C 1.675781 0.015625 1.804688 0.015625 1.917969 -0.015625 C 2.0625 -0.046875 2.191406 -0.0976562 2.238281 -0.195312 C 2.320312 -0.339844 2.367188 -0.46875 2.417969 -0.582031 C 2.480469 -0.710938 2.53125 -0.839844 2.59375 -0.96875 C 2.660156 -1.097656 2.707031 -1.226562 2.773438 -1.371094 C 2.933594 -1.371094 3.109375 -1.355469 3.253906 -1.355469 Z M 3.367188 -3.496094 C 3.433594 -3.640625 3.527344 -3.769531 3.578125 -3.914062 C 3.640625 -4.0625 3.65625 -4.238281 3.722656 -4.382812 C 3.769531 -4.527344 3.835938 -4.671875 3.898438 -4.816406 C 3.964844 -4.964844 4.042969 -5.09375 4.109375 -5.253906 C 4.171875 -5.398438 4.207031 -5.558594 4.253906 -5.722656 C 4.335938 -5.59375 4.414062 -5.464844 4.480469 -5.335938 C 4.558594 -5.207031 4.609375 -5.078125 4.671875 -4.964844 C 4.738281 -4.835938 4.800781 -4.707031 4.867188 -4.59375 C 4.929688 -4.464844 4.996094 -4.335938 5.058594 -4.207031 C 5.109375 -4.078125 5.140625 -3.933594 5.1875 -3.804688 C 5.253906 -3.675781 5.316406 -3.546875 5.367188 -3.417969 C 5.429688 -3.289062 5.511719 -3.160156 5.558594 -3.03125 C 5.398438 -3.03125 5.238281 -3.011719 5.078125 -3.011719 C 4.929688 -3.011719 4.769531 -3.046875 4.609375 -3.046875 C 4.464844 -3.046875 4.300781 -3.03125 4.140625 -3.03125 C 3.996094 -3.03125 3.835938 -3.03125 3.675781 -3.03125 C 3.527344 -3.03125 3.351562 -3.03125 3.191406 -3.03125 C 3.253906 -3.175781 3.304688 -3.351562 3.367188 -3.496094 Z M 3.367188 -3.496094 "/></g></g></g><g fill="#000000" fill-opacity="1"><g transform="translate(148.079886, 248.915075)"><g><path d="M 3.304688 -3.335938 C 3.464844 -3.367188 3.59375 -3.382812 3.722656 -3.398438 C 3.882812 -3.417969 4.011719 -3.398438 4.125 -3.398438 C 4.300781 -3.398438 4.429688 -3.398438 4.542969 -3.351562 C 4.671875 -3.304688 4.769531 -3.207031 4.867188 -3.09375 C 4.929688 -2.996094 4.996094 -2.867188 5.078125 -2.722656 C 5.125 -2.609375 5.171875 -2.480469 5.253906 -2.351562 C 5.316406 -2.207031 5.382812 -2.0625 5.464844 -1.917969 C 5.542969 -1.773438 5.59375 -1.613281 5.671875 -1.464844 C 5.738281 -1.320312 5.851562 -1.191406 5.914062 -1.046875 C 5.996094 -0.902344 6.058594 -0.757812 6.125 -0.613281 C 6.203125 -0.484375 6.285156 -0.386719 6.332031 -0.289062 C 6.429688 -0.144531 6.511719 -0.0820312 6.605469 -0.03125 C 6.71875 0.015625 6.816406 0.015625 6.976562 0 C 7.089844 0 7.21875 0 7.378906 0 C 7.589844 0 7.75 -0.015625 7.847656 -0.046875 C 8.007812 -0.0976562 8.007812 -0.195312 7.929688 -0.433594 C 7.894531 -0.546875 7.863281 -0.710938 7.765625 -0.886719 C 7.71875 -1.015625 7.621094 -1.144531 7.558594 -1.304688 C 7.492188 -1.433594 7.429688 -1.578125 7.363281 -1.722656 C 7.300781 -1.871094 7.285156 -2.03125 7.21875 -2.175781 C 7.15625 -2.320312 7.074219 -2.464844 7.027344 -2.59375 C 6.960938 -2.738281 6.898438 -2.882812 6.847656 -3.03125 C 6.785156 -3.175781 6.6875 -3.304688 6.625 -3.449219 C 6.574219 -3.5625 6.574219 -3.691406 6.605469 -3.804688 C 6.640625 -3.914062 6.71875 -4.011719 6.816406 -4.078125 C 6.960938 -4.171875 7.105469 -4.238281 7.25 -4.367188 C 7.347656 -4.480469 7.414062 -4.609375 7.492188 -4.722656 C 7.589844 -4.851562 7.65625 -4.964844 7.71875 -5.09375 C 7.765625 -5.222656 7.832031 -5.351562 7.863281 -5.496094 C 7.894531 -5.640625 7.914062 -5.769531 7.929688 -5.914062 C 7.929688 -6.058594 7.914062 -6.203125 7.894531 -6.347656 C 7.863281 -6.476562 7.847656 -6.625 7.800781 -6.769531 C 7.75 -6.898438 7.6875 -7.027344 7.621094 -7.15625 C 7.542969 -7.269531 7.492188 -7.414062 7.398438 -7.527344 C 7.300781 -7.621094 7.171875 -7.703125 7.058594 -7.800781 C 6.960938 -7.878906 6.847656 -7.976562 6.71875 -8.058594 C 6.589844 -8.121094 6.460938 -8.171875 6.316406 -8.21875 C 6.1875 -8.265625 6.042969 -8.300781 5.898438 -8.332031 C 5.769531 -8.347656 5.625 -8.363281 5.480469 -8.378906 C 5.335938 -8.394531 5.207031 -8.410156 5.058594 -8.429688 C 4.914062 -8.445312 4.769531 -8.460938 4.625 -8.460938 C 4.496094 -8.460938 4.351562 -8.460938 4.207031 -8.460938 C 4.0625 -8.460938 3.914062 -8.476562 3.785156 -8.476562 C 3.640625 -8.476562 3.496094 -8.460938 3.351562 -8.460938 C 3.207031 -8.460938 3.0625 -8.460938 2.933594 -8.460938 C 2.789062 -8.460938 2.644531 -8.460938 2.496094 -8.460938 C 2.335938 -8.460938 2.191406 -8.460938 2.0625 -8.460938 C 1.886719 -8.445312 1.742188 -8.445312 1.613281 -8.410156 C 1.464844 -8.363281 1.371094 -8.300781 1.304688 -8.152344 C 1.257812 -8.042969 1.242188 -7.894531 1.242188 -7.71875 C 1.226562 -7.574219 1.207031 -7.429688 1.207031 -7.285156 C 1.207031 -7.140625 1.175781 -6.992188 1.175781 -6.847656 C 1.175781 -6.71875 1.191406 -6.574219 1.191406 -6.414062 C 1.191406 -6.269531 1.191406 -6.125 1.191406 -5.980469 C 1.191406 -5.832031 1.175781 -5.6875 1.175781 -5.542969 C 1.175781 -5.414062 1.175781 -5.269531 1.175781 -5.125 C 1.175781 -4.980469 1.191406 -4.835938 1.191406 -4.6875 C 1.191406 -4.542969 1.160156 -4.398438 1.160156 -4.253906 C 1.160156 -4.109375 1.160156 -3.964844 1.160156 -3.820312 C 1.160156 -3.675781 1.175781 -3.527344 1.175781 -3.382812 C 1.175781 -3.238281 1.160156 -3.09375 1.160156 -2.949219 C 1.160156 -2.820312 1.175781 -2.675781 1.175781 -2.53125 C 1.175781 -2.386719 1.175781 -2.238281 1.175781 -2.09375 C 1.175781 -1.949219 1.191406 -1.804688 1.191406 -1.675781 C 1.191406 -1.515625 1.175781 -1.386719 1.175781 -1.242188 C 1.175781 -1.128906 1.191406 -1 1.175781 -0.871094 C 1.175781 -0.742188 1.128906 -0.613281 1.144531 -0.484375 C 1.144531 -0.355469 1.191406 -0.226562 1.242188 -0.128906 C 1.289062 -0.046875 1.449219 0 1.613281 0.015625 C 1.773438 0.046875 1.949219 0.046875 2.046875 0.03125 C 2.160156 0.015625 2.320312 0.03125 2.464844 0.015625 C 2.644531 0 2.789062 -0.046875 2.835938 -0.160156 C 2.882812 -0.257812 2.917969 -0.402344 2.917969 -0.5625 C 2.933594 -0.691406 2.933594 -0.839844 2.933594 -0.984375 C 2.917969 -1.128906 2.902344 -1.273438 2.902344 -1.386719 C 2.902344 -1.546875 2.902344 -1.707031 2.902344 -1.851562 C 2.917969 -2.015625 2.882812 -2.175781 2.882812 -2.335938 C 2.882812 -2.480469 2.917969 -2.644531 2.917969 -2.804688 C 2.917969 -2.949219 2.882812 -3.125 2.882812 -3.269531 C 3.03125 -3.304688 3.175781 -3.320312 3.304688 -3.335938 Z M 2.980469 -5.316406 C 2.980469 -5.445312 2.964844 -5.59375 2.964844 -5.722656 C 2.964844 -5.851562 2.980469 -5.980469 2.980469 -6.125 C 2.980469 -6.253906 2.964844 -6.382812 2.964844 -6.527344 C 2.964844 -6.65625 2.964844 -6.785156 2.964844 -6.914062 C 3.125 -6.914062 3.289062 -6.929688 3.449219 -6.945312 C 3.609375 -6.945312 3.785156 -6.929688 3.949219 -6.929688 C 4.109375 -6.929688 4.269531 -6.960938 4.429688 -6.960938 C 4.59375 -6.960938 4.753906 -6.929688 4.914062 -6.914062 C 5.058594 -6.914062 5.207031 -6.914062 5.335938 -6.882812 C 5.480469 -6.847656 5.625 -6.785156 5.738281 -6.71875 C 5.867188 -6.65625 5.960938 -6.558594 6.042969 -6.445312 C 6.140625 -6.332031 6.171875 -6.1875 6.171875 -6.058594 C 6.1875 -5.898438 6.140625 -5.753906 6.058594 -5.609375 C 5.980469 -5.480469 5.867188 -5.367188 5.738281 -5.269531 C 5.609375 -5.171875 5.480469 -5.09375 5.316406 -5.042969 C 5.171875 -4.980469 5.027344 -4.929688 4.867188 -4.914062 C 4.722656 -4.914062 4.558594 -4.914062 4.398438 -4.898438 C 4.238281 -4.898438 4.078125 -4.867188 3.914062 -4.867188 C 3.753906 -4.882812 3.609375 -4.914062 3.433594 -4.914062 C 3.289062 -4.929688 3.109375 -4.898438 2.949219 -4.898438 C 2.949219 -5.042969 2.980469 -5.1875 2.980469 -5.316406 Z M 2.980469 -5.316406 "/></g></g></g><g fill="#000000" fill-opacity="1"><g transform="translate(161.534858, 248.915075)"><g><path d="M 5.269531 -6.703125 C 5.414062 -6.703125 5.542969 -6.6875 5.671875 -6.6875 C 5.816406 -6.6875 5.945312 -6.703125 6.074219 -6.703125 C 6.238281 -6.71875 6.367188 -6.71875 6.460938 -6.71875 C 6.640625 -6.753906 6.734375 -6.800781 6.816406 -6.863281 C 6.898438 -6.945312 6.945312 -7.042969 6.960938 -7.21875 C 6.976562 -7.332031 6.945312 -7.460938 6.945312 -7.605469 C 6.945312 -7.785156 6.960938 -7.929688 6.945312 -8.042969 C 6.898438 -8.203125 6.800781 -8.28125 6.671875 -8.347656 C 6.574219 -8.410156 6.445312 -8.429688 6.269531 -8.429688 C 6.125 -8.429688 5.980469 -8.445312 5.832031 -8.445312 C 5.6875 -8.445312 5.542969 -8.476562 5.398438 -8.476562 C 5.269531 -8.476562 5.125 -8.476562 4.980469 -8.476562 C 4.835938 -8.476562 4.6875 -8.476562 4.542969 -8.476562 C 4.398438 -8.492188 4.269531 -8.492188 4.125 -8.492188 C 3.980469 -8.492188 3.835938 -8.492188 3.691406 -8.492188 C 3.546875 -8.492188 3.398438 -8.492188 3.253906 -8.492188 C 3.109375 -8.492188 2.980469 -8.460938 2.835938 -8.476562 C 2.691406 -8.476562 2.546875 -8.507812 2.402344 -8.507812 C 2.257812 -8.523438 2.109375 -8.492188 1.964844 -8.492188 C 1.820312 -8.492188 1.675781 -8.523438 1.53125 -8.523438 C 1.386719 -8.523438 1.242188 -8.523438 1.097656 -8.523438 C 0.949219 -8.523438 0.773438 -8.523438 0.675781 -8.445312 C 0.582031 -8.347656 0.515625 -8.234375 0.484375 -8.105469 C 0.433594 -7.976562 0.417969 -7.832031 0.433594 -7.71875 C 0.433594 -7.558594 0.417969 -7.414062 0.433594 -7.269531 C 0.453125 -7.121094 0.484375 -6.976562 0.613281 -6.863281 C 0.710938 -6.785156 0.855469 -6.785156 1 -6.769531 C 1.128906 -6.769531 1.273438 -6.734375 1.402344 -6.71875 C 1.59375 -6.71875 1.773438 -6.71875 1.933594 -6.703125 C 2.144531 -6.6875 2.320312 -6.65625 2.464844 -6.640625 C 2.644531 -6.625 2.753906 -6.496094 2.773438 -6.316406 C 2.773438 -6.203125 2.789062 -6.074219 2.789062 -5.929688 C 2.789062 -5.816406 2.789062 -5.6875 2.789062 -5.558594 C 2.789062 -5.429688 2.804688 -5.300781 2.804688 -5.171875 C 2.804688 -5.027344 2.804688 -4.867188 2.804688 -4.738281 C 2.804688 -4.578125 2.789062 -4.429688 2.789062 -4.285156 C 2.789062 -4.140625 2.789062 -3.980469 2.789062 -3.851562 C 2.789062 -3.691406 2.804688 -3.546875 2.804688 -3.398438 C 2.804688 -3.253906 2.789062 -3.109375 2.789062 -2.964844 C 2.789062 -2.820312 2.773438 -2.675781 2.789062 -2.515625 C 2.789062 -2.367188 2.789062 -2.222656 2.804688 -2.078125 C 2.804688 -1.933594 2.789062 -1.789062 2.804688 -1.628906 C 2.804688 -1.5 2.789062 -1.335938 2.789062 -1.191406 C 2.789062 -1.046875 2.789062 -0.902344 2.789062 -0.742188 C 2.804688 -0.515625 2.835938 -0.371094 2.882812 -0.257812 C 2.949219 -0.0664062 3.0625 -0.03125 3.253906 -0.015625 C 3.382812 -0.015625 3.546875 0 3.738281 -0.015625 C 3.949219 -0.015625 4.09375 -0.03125 4.207031 -0.0664062 C 4.414062 -0.0976562 4.511719 -0.160156 4.558594 -0.304688 C 4.59375 -0.417969 4.578125 -0.582031 4.578125 -0.773438 C 4.578125 -0.933594 4.59375 -1.0625 4.578125 -1.175781 C 4.578125 -1.355469 4.558594 -1.464844 4.558594 -1.578125 C 4.558594 -1.722656 4.609375 -1.835938 4.59375 -1.980469 C 4.59375 -2.09375 4.59375 -2.207031 4.59375 -2.386719 C 4.59375 -2.496094 4.578125 -2.625 4.578125 -2.789062 C 4.578125 -2.933594 4.59375 -3.078125 4.578125 -3.222656 C 4.578125 -3.367188 4.542969 -3.511719 4.542969 -3.675781 C 4.542969 -3.820312 4.527344 -3.964844 4.527344 -4.109375 C 4.527344 -4.253906 4.511719 -4.414062 4.511719 -4.558594 C 4.511719 -4.707031 4.511719 -4.851562 4.511719 -5.011719 C 4.511719 -5.15625 4.511719 -5.300781 4.496094 -5.445312 C 4.496094 -5.59375 4.527344 -5.753906 4.527344 -5.898438 C 4.527344 -6.042969 4.511719 -6.1875 4.496094 -6.347656 C 4.496094 -6.542969 4.65625 -6.6875 4.867188 -6.6875 C 5.011719 -6.6875 5.140625 -6.703125 5.269531 -6.703125 Z M 5.269531 -6.703125 "/></g></g></g><g fill="#000000" fill-opacity="1"><g transform="translate(173.588119, 248.915075)"><g><path d="M 3.011719 -5.527344 C 3.011719 -5.6875 2.964844 -5.832031 2.949219 -5.960938 C 2.949219 -6.109375 2.933594 -6.238281 2.902344 -6.382812 C 2.882812 -6.511719 2.917969 -6.65625 2.917969 -6.800781 C 2.902344 -6.945312 2.867188 -7.089844 2.867188 -7.21875 C 2.851562 -7.363281 2.867188 -7.507812 2.851562 -7.65625 C 2.851562 -7.800781 2.851562 -7.945312 2.851562 -8.074219 C 2.835938 -8.300781 2.773438 -8.410156 2.644531 -8.476562 C 2.546875 -8.523438 2.386719 -8.507812 2.191406 -8.507812 C 2.0625 -8.507812 1.917969 -8.558594 1.789062 -8.539062 C 1.644531 -8.539062 1.5 -8.507812 1.386719 -8.460938 C 1.257812 -8.394531 1.191406 -8.300781 1.175781 -8.136719 C 1.175781 -8.058594 1.175781 -7.914062 1.175781 -7.785156 C 1.175781 -7.636719 1.160156 -7.492188 1.160156 -7.414062 C 1.160156 -7.269531 1.160156 -7.121094 1.160156 -6.976562 C 1.160156 -6.832031 1.175781 -6.671875 1.175781 -6.527344 C 1.175781 -6.382812 1.191406 -6.238281 1.191406 -6.089844 C 1.191406 -5.945312 1.175781 -5.800781 1.175781 -5.65625 C 1.175781 -5.511719 1.144531 -5.367188 1.160156 -5.222656 C 1.160156 -5.058594 1.175781 -4.914062 1.175781 -4.769531 C 1.175781 -4.625 1.191406 -4.480469 1.191406 -4.335938 C 1.191406 -4.191406 1.191406 -4.042969 1.191406 -3.898438 C 1.207031 -3.753906 1.207031 -3.609375 1.207031 -3.449219 C 1.226562 -3.304688 1.175781 -3.160156 1.175781 -3.011719 C 1.175781 -2.867188 1.226562 -2.722656 1.226562 -2.578125 C 1.226562 -2.433594 1.191406 -2.289062 1.191406 -2.144531 C 1.191406 -2 1.207031 -1.835938 1.207031 -1.691406 C 1.207031 -1.546875 1.207031 -1.402344 1.207031 -1.257812 C 1.207031 -1.0625 1.242188 -0.917969 1.257812 -0.773438 C 1.289062 -0.582031 1.355469 -0.433594 1.417969 -0.324219 C 1.515625 -0.160156 1.644531 -0.0664062 1.789062 -0.015625 C 1.933594 0.03125 2.09375 0.03125 2.273438 0.015625 C 2.433594 0.015625 2.5625 0 2.660156 -0.0664062 C 2.789062 -0.128906 2.867188 -0.257812 2.902344 -0.386719 C 2.933594 -0.5 2.917969 -0.644531 2.917969 -0.789062 C 2.933594 -0.933594 2.933594 -1.0625 2.949219 -1.191406 C 2.964844 -1.335938 2.933594 -1.464844 2.933594 -1.613281 C 2.949219 -1.742188 2.980469 -1.886719 2.980469 -2.015625 C 2.980469 -2.160156 2.980469 -2.289062 2.980469 -2.433594 C 2.980469 -2.5625 2.949219 -2.707031 2.949219 -2.835938 C 2.949219 -2.980469 2.980469 -3.109375 2.996094 -3.253906 C 2.996094 -3.320312 3.03125 -3.351562 3.09375 -3.351562 C 3.222656 -3.351562 3.382812 -3.382812 3.527344 -3.382812 C 3.675781 -3.382812 3.820312 -3.351562 3.964844 -3.351562 C 4.109375 -3.351562 4.253906 -3.335938 4.414062 -3.335938 C 4.558594 -3.335938 4.707031 -3.367188 4.851562 -3.367188 C 4.996094 -3.367188 5.140625 -3.320312 5.285156 -3.320312 C 5.445312 -3.320312 5.59375 -3.351562 5.738281 -3.351562 C 5.882812 -3.351562 6.027344 -3.351562 6.171875 -3.351562 C 6.238281 -3.351562 6.300781 -3.289062 6.300781 -3.222656 C 6.300781 -3.09375 6.300781 -2.964844 6.300781 -2.835938 C 6.300781 -2.707031 6.316406 -2.578125 6.332031 -2.449219 C 6.332031 -2.320312 6.316406 -2.191406 6.316406 -2.078125 C 6.316406 -1.949219 6.316406 -1.820312 6.332031 -1.691406 C 6.332031 -1.5625 6.367188 -1.417969 6.367188 -1.273438 C 6.367188 -1.144531 6.347656 -1 6.367188 -0.871094 C 6.367188 -0.726562 6.398438 -0.582031 6.398438 -0.46875 C 6.398438 -0.304688 6.460938 -0.226562 6.558594 -0.144531 C 6.640625 -0.0820312 6.753906 -0.046875 6.898438 -0.03125 C 7.027344 -0.015625 7.15625 -0.015625 7.269531 -0.015625 C 7.460938 0 7.636719 0 7.75 -0.0820312 C 7.863281 -0.160156 7.945312 -0.289062 7.945312 -0.515625 C 7.976562 -0.675781 7.960938 -0.839844 7.960938 -1 C 7.960938 -1.144531 7.929688 -1.273438 7.929688 -1.417969 C 7.929688 -1.5625 7.960938 -1.707031 7.960938 -1.851562 C 7.960938 -1.980469 7.945312 -2.128906 7.945312 -2.273438 C 7.945312 -2.417969 7.976562 -2.5625 7.976562 -2.707031 C 7.976562 -2.835938 7.976562 -2.980469 7.976562 -3.125 C 7.976562 -3.269531 7.945312 -3.417969 7.945312 -3.546875 C 7.945312 -3.691406 7.960938 -3.835938 7.960938 -3.980469 C 7.960938 -4.125 7.945312 -4.269531 7.945312 -4.398438 C 7.945312 -4.542969 7.992188 -4.6875 7.992188 -4.835938 C 7.992188 -4.980469 7.992188 -5.109375 7.992188 -5.253906 C 7.992188 -5.398438 7.992188 -5.542969 7.992188 -5.6875 C 7.992188 -5.816406 7.960938 -5.960938 7.960938 -6.109375 C 7.960938 -6.253906 7.960938 -6.398438 7.960938 -6.542969 C 7.960938 -6.671875 7.976562 -6.816406 7.976562 -6.960938 C 7.976562 -7.105469 7.992188 -7.25 7.992188 -7.378906 C 7.992188 -7.492188 7.976562 -7.605469 7.976562 -7.734375 C 7.992188 -7.847656 7.976562 -7.976562 7.960938 -8.074219 C 7.929688 -8.234375 7.863281 -8.363281 7.71875 -8.445312 C 7.589844 -8.507812 7.429688 -8.507812 7.269531 -8.523438 C 7.105469 -8.539062 6.945312 -8.539062 6.832031 -8.507812 C 6.703125 -8.476562 6.574219 -8.476562 6.476562 -8.445312 C 6.367188 -8.394531 6.300781 -8.316406 6.253906 -8.1875 C 6.21875 -8.089844 6.171875 -7.945312 6.171875 -7.800781 C 6.171875 -7.671875 6.1875 -7.527344 6.1875 -7.398438 C 6.203125 -7.234375 6.253906 -7.105469 6.238281 -6.992188 C 6.238281 -6.832031 6.21875 -6.6875 6.21875 -6.542969 C 6.21875 -6.382812 6.253906 -6.238281 6.253906 -6.089844 C 6.253906 -5.929688 6.238281 -5.785156 6.238281 -5.625 C 6.238281 -5.480469 6.21875 -5.351562 6.203125 -5.1875 C 6.058594 -5.171875 5.945312 -5.15625 5.832031 -5.140625 C 5.6875 -5.140625 5.558594 -5.140625 5.445312 -5.140625 C 5.335938 -5.140625 5.1875 -5.15625 5.042969 -5.15625 C 4.914062 -5.15625 4.769531 -5.109375 4.640625 -5.109375 C 4.496094 -5.109375 4.367188 -5.09375 4.222656 -5.09375 C 4.078125 -5.09375 3.949219 -5.09375 3.804688 -5.09375 C 3.675781 -5.09375 3.527344 -5.09375 3.398438 -5.078125 C 3.253906 -5.078125 3.125 -5.109375 2.996094 -5.109375 C 2.980469 -5.253906 3.011719 -5.398438 3.011719 -5.527344 Z M 3.011719 -5.527344 "/></g></g></g><g fill="#000000" fill-opacity="1"><g transform="translate(187.413666, 248.915075)"><g><path d="M 3.980469 -3.335938 C 3.898438 -3.109375 3.820312 -3.191406 3.753906 -3.351562 C 3.722656 -3.449219 3.691406 -3.59375 3.640625 -3.707031 C 3.609375 -3.820312 3.5625 -3.964844 3.527344 -4.109375 C 3.496094 -4.238281 3.464844 -4.367188 3.433594 -4.511719 C 3.398438 -4.640625 3.367188 -4.785156 3.335938 -4.914062 C 3.289062 -5.058594 3.289062 -5.207031 3.253906 -5.316406 C 3.222656 -5.464844 3.222656 -5.609375 3.191406 -5.769531 C 3.160156 -5.914062 3.09375 -6.042969 3.0625 -6.203125 C 3.03125 -6.347656 2.996094 -6.496094 2.964844 -6.640625 C 2.933594 -6.785156 2.902344 -6.929688 2.867188 -7.089844 C 2.835938 -7.234375 2.804688 -7.378906 2.773438 -7.527344 C 2.738281 -7.671875 2.691406 -7.816406 2.644531 -7.960938 C 2.609375 -8.105469 2.59375 -8.25 2.546875 -8.394531 C 2.515625 -8.492188 2.351562 -8.558594 2.191406 -8.574219 C 2.0625 -8.574219 1.917969 -8.558594 1.789062 -8.574219 C 1.644531 -8.574219 1.515625 -8.574219 1.417969 -8.589844 C 1.226562 -8.636719 1.046875 -8.621094 0.902344 -8.589844 C 0.726562 -8.539062 0.597656 -8.410156 0.5625 -8.21875 C 0.546875 -8.121094 0.597656 -7.960938 0.628906 -7.800781 C 0.675781 -7.621094 0.710938 -7.460938 0.726562 -7.363281 C 0.773438 -7.21875 0.839844 -7.089844 0.871094 -6.945312 C 0.917969 -6.800781 0.917969 -6.640625 0.949219 -6.511719 C 1 -6.367188 1.078125 -6.21875 1.113281 -6.089844 C 1.160156 -5.945312 1.175781 -5.800781 1.226562 -5.65625 C 1.257812 -5.511719 1.289062 -5.367188 1.335938 -5.222656 C 1.371094 -5.078125 1.386719 -4.929688 1.417969 -4.785156 C 1.449219 -4.640625 1.515625 -4.496094 1.546875 -4.351562 C 1.578125 -4.207031 1.613281 -4.0625 1.660156 -3.914062 C 1.691406 -3.785156 1.722656 -3.640625 1.757812 -3.496094 C 1.804688 -3.351562 1.851562 -3.207031 1.902344 -3.0625 C 1.933594 -2.917969 1.964844 -2.773438 2.015625 -2.625 C 2.046875 -2.496094 2.128906 -2.351562 2.160156 -2.207031 C 2.207031 -2.078125 2.191406 -1.917969 2.222656 -1.773438 C 2.273438 -1.628906 2.351562 -1.5 2.386719 -1.355469 C 2.433594 -1.207031 2.417969 -1.046875 2.449219 -0.902344 C 2.496094 -0.773438 2.546875 -0.628906 2.59375 -0.484375 C 2.625 -0.339844 2.707031 -0.242188 2.804688 -0.160156 C 2.902344 -0.0820312 3.03125 -0.046875 3.175781 -0.015625 C 3.289062 0 3.417969 0.015625 3.5625 0.015625 C 3.722656 0.015625 3.898438 0 4.0625 -0.03125 C 4.222656 -0.0664062 4.398438 -0.113281 4.527344 -0.210938 C 4.671875 -0.289062 4.753906 -0.433594 4.835938 -0.597656 C 4.882812 -0.757812 4.980469 -0.886719 5.027344 -1.03125 C 5.078125 -1.175781 5.09375 -1.335938 5.140625 -1.484375 C 5.1875 -1.628906 5.253906 -1.773438 5.285156 -1.917969 C 5.316406 -2.078125 5.367188 -2.222656 5.398438 -2.367188 C 5.445312 -2.53125 5.464844 -2.675781 5.511719 -2.835938 C 5.542969 -2.980469 5.59375 -3.125 5.640625 -3.289062 C 5.6875 -3.433594 5.703125 -3.59375 5.753906 -3.738281 C 5.785156 -3.851562 5.816406 -4.011719 5.867188 -4.171875 C 5.914062 -4.367188 6.011719 -4.527344 6.074219 -4.527344 C 6.109375 -4.527344 6.1875 -4.398438 6.285156 -4.15625 C 6.316406 -4.042969 6.398438 -3.914062 6.445312 -3.753906 C 6.496094 -3.625 6.511719 -3.464844 6.558594 -3.320312 C 6.589844 -3.191406 6.640625 -3.046875 6.6875 -2.902344 C 6.71875 -2.753906 6.785156 -2.609375 6.816406 -2.480469 C 6.863281 -2.335938 6.898438 -2.191406 6.945312 -2.0625 C 6.992188 -1.886719 6.992188 -1.722656 7.027344 -1.5625 C 7.058594 -1.402344 7.089844 -1.242188 7.121094 -1.078125 C 7.171875 -0.933594 7.25 -0.789062 7.332031 -0.628906 C 7.378906 -0.515625 7.460938 -0.402344 7.558594 -0.304688 C 7.636719 -0.210938 7.71875 -0.113281 7.863281 -0.046875 C 7.960938 -0.015625 8.089844 0 8.25 0 C 8.394531 0 8.539062 0.015625 8.652344 0.015625 C 8.796875 0 8.925781 -0.03125 9.023438 -0.0664062 C 9.167969 -0.0976562 9.28125 -0.128906 9.363281 -0.226562 C 9.476562 -0.339844 9.589844 -0.644531 9.621094 -0.804688 C 9.667969 -0.949219 9.765625 -1.0625 9.8125 -1.207031 C 9.847656 -1.355469 9.894531 -1.5 9.925781 -1.644531 C 9.957031 -1.773438 9.976562 -1.933594 10.023438 -2.0625 C 10.054688 -2.207031 10.105469 -2.351562 10.152344 -2.496094 C 10.183594 -2.644531 10.167969 -2.789062 10.21875 -2.933594 C 10.25 -3.078125 10.28125 -3.222656 10.3125 -3.367188 C 10.347656 -3.511719 10.378906 -3.65625 10.410156 -3.785156 C 10.441406 -3.933594 10.492188 -4.078125 10.523438 -4.222656 C 10.554688 -4.367188 10.585938 -4.511719 10.621094 -4.65625 C 10.667969 -4.785156 10.75 -4.929688 10.78125 -5.078125 C 10.8125 -5.207031 10.828125 -5.367188 10.878906 -5.496094 C 10.910156 -5.640625 10.992188 -5.769531 11.023438 -5.914062 C 11.054688 -6.042969 11.054688 -6.21875 11.101562 -6.398438 C 11.136719 -6.542969 11.183594 -6.6875 11.230469 -6.847656 C 11.265625 -7.011719 11.34375 -7.15625 11.378906 -7.316406 C 11.425781 -7.476562 11.425781 -7.636719 11.457031 -7.785156 C 11.507812 -7.960938 11.523438 -8.121094 11.539062 -8.25 C 11.585938 -8.507812 11.523438 -8.574219 11.328125 -8.589844 C 11.199219 -8.605469 11.039062 -8.605469 10.8125 -8.605469 C 10.652344 -8.605469 10.507812 -8.574219 10.378906 -8.558594 C 10.21875 -8.558594 10.070312 -8.589844 9.941406 -8.539062 C 9.8125 -8.476562 9.734375 -8.363281 9.683594 -8.203125 C 9.636719 -8.074219 9.589844 -7.929688 9.554688 -7.765625 C 9.523438 -7.621094 9.492188 -7.460938 9.460938 -7.316406 C 9.425781 -7.171875 9.425781 -7.011719 9.410156 -6.847656 C 9.378906 -6.703125 9.347656 -6.542969 9.3125 -6.398438 C 9.28125 -6.253906 9.25 -6.089844 9.21875 -5.945312 C 9.183594 -5.800781 9.183594 -5.640625 9.136719 -5.496094 C 9.105469 -5.335938 9.039062 -5.1875 8.992188 -5.027344 C 8.960938 -4.867188 8.910156 -4.707031 8.878906 -4.542969 C 8.832031 -4.382812 8.765625 -4.222656 8.734375 -4.078125 C 8.6875 -3.898438 8.636719 -3.753906 8.589844 -3.59375 C 8.539062 -3.335938 8.460938 -3.191406 8.363281 -3.269531 C 8.316406 -3.320312 8.234375 -3.449219 8.1875 -3.691406 C 8.136719 -3.835938 8.121094 -3.996094 8.089844 -4.140625 C 8.042969 -4.285156 7.945312 -4.429688 7.914062 -4.578125 C 7.863281 -4.722656 7.847656 -4.882812 7.816406 -5.027344 C 7.765625 -5.171875 7.71875 -5.335938 7.6875 -5.480469 C 7.636719 -5.625 7.636719 -5.785156 7.589844 -5.929688 C 7.558594 -6.074219 7.492188 -6.21875 7.460938 -6.367188 C 7.414062 -6.527344 7.378906 -6.671875 7.332031 -6.816406 C 7.300781 -6.960938 7.285156 -7.121094 7.25 -7.269531 C 7.203125 -7.429688 7.15625 -7.574219 7.105469 -7.703125 C 7.058594 -7.894531 7.027344 -8.058594 6.992188 -8.1875 C 6.929688 -8.347656 6.863281 -8.492188 6.671875 -8.558594 C 6.558594 -8.589844 6.382812 -8.589844 6.171875 -8.589844 C 6.011719 -8.589844 5.867188 -8.589844 5.738281 -8.558594 C 5.59375 -8.539062 5.464844 -8.507812 5.367188 -8.378906 C 5.285156 -8.300781 5.207031 -8.1875 5.140625 -8.007812 C 5.09375 -7.894531 5.058594 -7.75 5.011719 -7.589844 C 4.980469 -7.460938 4.964844 -7.300781 4.929688 -7.15625 C 4.898438 -7.011719 4.835938 -6.882812 4.800781 -6.71875 C 4.769531 -6.589844 4.707031 -6.445312 4.671875 -6.300781 C 4.640625 -6.15625 4.625 -6.011719 4.59375 -5.867188 C 4.558594 -5.722656 4.527344 -5.574219 4.496094 -5.429688 C 4.464844 -5.285156 4.449219 -5.125 4.414062 -4.996094 C 4.382812 -4.835938 4.335938 -4.707031 4.300781 -4.558594 C 4.253906 -4.414062 4.253906 -4.269531 4.207031 -4.125 C 4.171875 -3.980469 4.109375 -3.835938 4.0625 -3.707031 C 4.027344 -3.546875 4.011719 -3.417969 3.980469 -3.335938 Z M 3.980469 -3.335938 "/></g></g></g><g fill="#000000" fill-opacity="1"><g transform="translate(204.203755, 248.915075)"><g><path d="M 8.574219 -4.964844 C 8.558594 -5.125 8.523438 -5.269531 8.507812 -5.414062 C 8.476562 -5.558594 8.476562 -5.722656 8.429688 -5.867188 C 8.378906 -6.011719 8.300781 -6.15625 8.25 -6.300781 C 8.203125 -6.460938 8.152344 -6.605469 8.089844 -6.753906 C 8.042969 -6.898438 7.960938 -7.042969 7.894531 -7.171875 C 7.816406 -7.316406 7.71875 -7.445312 7.621094 -7.574219 C 7.527344 -7.6875 7.414062 -7.800781 7.285156 -7.914062 C 7.171875 -7.992188 7.042969 -8.089844 6.898438 -8.171875 C 6.753906 -8.234375 6.640625 -8.332031 6.476562 -8.394531 C 6.332031 -8.445312 6.171875 -8.460938 6.027344 -8.507812 C 5.867188 -8.539062 5.722656 -8.574219 5.558594 -8.589844 C 5.398438 -8.621094 5.253906 -8.6875 5.09375 -8.6875 C 4.929688 -8.703125 4.769531 -8.6875 4.609375 -8.6875 C 4.464844 -8.667969 4.300781 -8.667969 4.140625 -8.652344 C 3.980469 -8.621094 3.835938 -8.574219 3.675781 -8.539062 C 3.527344 -8.507812 3.382812 -8.460938 3.222656 -8.410156 C 3.078125 -8.363281 2.933594 -8.316406 2.789062 -8.25 C 2.644531 -8.1875 2.496094 -8.121094 2.367188 -8.042969 C 2.222656 -7.945312 2.128906 -7.816406 2.015625 -7.71875 C 1.886719 -7.605469 1.789062 -7.492188 1.691406 -7.363281 C 1.59375 -7.25 1.5 -7.121094 1.417969 -6.976562 C 1.355469 -6.847656 1.289062 -6.703125 1.242188 -6.542969 C 1.191406 -6.398438 1.160156 -6.238281 1.113281 -6.074219 C 1.0625 -5.914062 1.015625 -5.753906 0.984375 -5.609375 C 0.949219 -5.445312 0.933594 -5.285156 0.917969 -5.125 C 0.886719 -4.945312 0.839844 -4.800781 0.839844 -4.625 C 0.820312 -4.464844 0.855469 -4.300781 0.855469 -4.140625 C 0.855469 -3.980469 0.855469 -3.820312 0.871094 -3.640625 C 0.886719 -3.480469 0.917969 -3.320312 0.949219 -3.160156 C 0.984375 -2.996094 1.015625 -2.835938 1.046875 -2.691406 C 1.097656 -2.53125 1.160156 -2.386719 1.226562 -2.238281 C 1.273438 -2.09375 1.335938 -1.933594 1.417969 -1.804688 C 1.484375 -1.660156 1.5625 -1.515625 1.644531 -1.386719 C 1.742188 -1.257812 1.851562 -1.128906 1.949219 -1.015625 C 2.0625 -0.886719 2.175781 -0.773438 2.289062 -0.675781 C 2.417969 -0.5625 2.546875 -0.484375 2.691406 -0.402344 C 2.820312 -0.304688 2.964844 -0.242188 3.109375 -0.175781 C 3.253906 -0.0976562 3.398438 -0.046875 3.546875 0 C 3.707031 0.046875 3.867188 0.0820312 4.011719 0.113281 C 4.171875 0.144531 4.335938 0.160156 4.496094 0.175781 C 4.65625 0.175781 4.816406 0.175781 4.964844 0.160156 C 5.125 0.160156 5.285156 0.128906 5.445312 0.0976562 C 5.609375 0.0664062 5.753906 0.046875 5.914062 0 C 6.058594 -0.046875 6.21875 -0.0820312 6.367188 -0.160156 C 6.511719 -0.226562 6.640625 -0.324219 6.785156 -0.417969 C 6.914062 -0.5 7.042969 -0.597656 7.15625 -0.710938 C 7.269531 -0.820312 7.378906 -0.933594 7.492188 -1.0625 C 7.589844 -1.175781 7.671875 -1.304688 7.765625 -1.433594 C 7.847656 -1.5625 7.929688 -1.707031 7.992188 -1.835938 C 8.074219 -1.964844 8.152344 -2.109375 8.21875 -2.238281 C 8.265625 -2.386719 8.332031 -2.53125 8.378906 -2.675781 C 8.429688 -2.820312 8.460938 -2.980469 8.476562 -3.125 C 8.507812 -3.289062 8.539062 -3.433594 8.558594 -3.59375 C 8.589844 -3.738281 8.589844 -3.898438 8.589844 -4.0625 C 8.589844 -4.207031 8.589844 -4.367188 8.589844 -4.511719 C 8.574219 -4.671875 8.574219 -4.816406 8.574219 -4.964844 Z M 2.753906 -4.753906 C 2.773438 -4.945312 2.789062 -5.125 2.820312 -5.300781 C 2.835938 -5.496094 2.902344 -5.671875 2.949219 -5.851562 C 2.996094 -5.996094 3.03125 -6.140625 3.109375 -6.269531 C 3.207031 -6.398438 3.320312 -6.511719 3.433594 -6.605469 C 3.546875 -6.703125 3.675781 -6.800781 3.804688 -6.882812 C 3.949219 -6.945312 4.09375 -6.992188 4.238281 -7.042969 C 4.382812 -7.074219 4.527344 -7.105469 4.6875 -7.121094 C 4.835938 -7.121094 4.980469 -7.089844 5.125 -7.058594 C 5.269531 -7.011719 5.398438 -6.945312 5.542969 -6.882812 C 5.671875 -6.800781 5.800781 -6.71875 5.898438 -6.625 C 6.011719 -6.527344 6.109375 -6.398438 6.1875 -6.269531 C 6.269531 -6.15625 6.347656 -6.027344 6.398438 -5.882812 C 6.445312 -5.738281 6.511719 -5.574219 6.542969 -5.429688 C 6.589844 -5.269531 6.625 -5.125 6.640625 -4.964844 C 6.671875 -4.816406 6.6875 -4.65625 6.6875 -4.496094 C 6.703125 -4.335938 6.703125 -4.171875 6.6875 -4.027344 C 6.671875 -3.867188 6.671875 -3.707031 6.640625 -3.546875 C 6.605469 -3.398438 6.574219 -3.238281 6.527344 -3.09375 C 6.476562 -2.949219 6.414062 -2.804688 6.347656 -2.660156 C 6.269531 -2.464844 6.15625 -2.335938 6.058594 -2.191406 C 5.929688 -2.046875 5.816406 -1.902344 5.671875 -1.804688 C 5.527344 -1.707031 5.351562 -1.628906 5.171875 -1.578125 C 5.011719 -1.546875 4.835938 -1.53125 4.640625 -1.53125 C 4.480469 -1.546875 4.335938 -1.578125 4.207031 -1.613281 C 4.042969 -1.660156 3.914062 -1.707031 3.785156 -1.789062 C 3.65625 -1.871094 3.5625 -1.964844 3.464844 -2.078125 C 3.367188 -2.191406 3.289062 -2.320312 3.222656 -2.449219 C 3.140625 -2.578125 3.078125 -2.707031 3.03125 -2.851562 C 2.980469 -2.996094 2.949219 -3.140625 2.902344 -3.304688 C 2.867188 -3.449219 2.835938 -3.609375 2.804688 -3.753906 C 2.773438 -3.914062 2.753906 -4.0625 2.722656 -4.207031 C 2.738281 -4.398438 2.738281 -4.578125 2.753906 -4.753906 Z M 2.753906 -4.753906 "/></g></g></g><g fill="#000000" fill-opacity="1"><g transform="translate(218.303192, 248.915075)"><g><path d="M 3.304688 -3.335938 C 3.464844 -3.367188 3.59375 -3.382812 3.722656 -3.398438 C 3.882812 -3.417969 4.011719 -3.398438 4.125 -3.398438 C 4.300781 -3.398438 4.429688 -3.398438 4.542969 -3.351562 C 4.671875 -3.304688 4.769531 -3.207031 4.867188 -3.09375 C 4.929688 -2.996094 4.996094 -2.867188 5.078125 -2.722656 C 5.125 -2.609375 5.171875 -2.480469 5.253906 -2.351562 C 5.316406 -2.207031 5.382812 -2.0625 5.464844 -1.917969 C 5.542969 -1.773438 5.59375 -1.613281 5.671875 -1.464844 C 5.738281 -1.320312 5.851562 -1.191406 5.914062 -1.046875 C 5.996094 -0.902344 6.058594 -0.757812 6.125 -0.613281 C 6.203125 -0.484375 6.285156 -0.386719 6.332031 -0.289062 C 6.429688 -0.144531 6.511719 -0.0820312 6.605469 -0.03125 C 6.71875 0.015625 6.816406 0.015625 6.976562 0 C 7.089844 0 7.21875 0 7.378906 0 C 7.589844 0 7.75 -0.015625 7.847656 -0.046875 C 8.007812 -0.0976562 8.007812 -0.195312 7.929688 -0.433594 C 7.894531 -0.546875 7.863281 -0.710938 7.765625 -0.886719 C 7.71875 -1.015625 7.621094 -1.144531 7.558594 -1.304688 C 7.492188 -1.433594 7.429688 -1.578125 7.363281 -1.722656 C 7.300781 -1.871094 7.285156 -2.03125 7.21875 -2.175781 C 7.15625 -2.320312 7.074219 -2.464844 7.027344 -2.59375 C 6.960938 -2.738281 6.898438 -2.882812 6.847656 -3.03125 C 6.785156 -3.175781 6.6875 -3.304688 6.625 -3.449219 C 6.574219 -3.5625 6.574219 -3.691406 6.605469 -3.804688 C 6.640625 -3.914062 6.71875 -4.011719 6.816406 -4.078125 C 6.960938 -4.171875 7.105469 -4.238281 7.25 -4.367188 C 7.347656 -4.480469 7.414062 -4.609375 7.492188 -4.722656 C 7.589844 -4.851562 7.65625 -4.964844 7.71875 -5.09375 C 7.765625 -5.222656 7.832031 -5.351562 7.863281 -5.496094 C 7.894531 -5.640625 7.914062 -5.769531 7.929688 -5.914062 C 7.929688 -6.058594 7.914062 -6.203125 7.894531 -6.347656 C 7.863281 -6.476562 7.847656 -6.625 7.800781 -6.769531 C 7.75 -6.898438 7.6875 -7.027344 7.621094 -7.15625 C 7.542969 -7.269531 7.492188 -7.414062 7.398438 -7.527344 C 7.300781 -7.621094 7.171875 -7.703125 7.058594 -7.800781 C 6.960938 -7.878906 6.847656 -7.976562 6.71875 -8.058594 C 6.589844 -8.121094 6.460938 -8.171875 6.316406 -8.21875 C 6.1875 -8.265625 6.042969 -8.300781 5.898438 -8.332031 C 5.769531 -8.347656 5.625 -8.363281 5.480469 -8.378906 C 5.335938 -8.394531 5.207031 -8.410156 5.058594 -8.429688 C 4.914062 -8.445312 4.769531 -8.460938 4.625 -8.460938 C 4.496094 -8.460938 4.351562 -8.460938 4.207031 -8.460938 C 4.0625 -8.460938 3.914062 -8.476562 3.785156 -8.476562 C 3.640625 -8.476562 3.496094 -8.460938 3.351562 -8.460938 C 3.207031 -8.460938 3.0625 -8.460938 2.933594 -8.460938 C 2.789062 -8.460938 2.644531 -8.460938 2.496094 -8.460938 C 2.335938 -8.460938 2.191406 -8.460938 2.0625 -8.460938 C 1.886719 -8.445312 1.742188 -8.445312 1.613281 -8.410156 C 1.464844 -8.363281 1.371094 -8.300781 1.304688 -8.152344 C 1.257812 -8.042969 1.242188 -7.894531 1.242188 -7.71875 C 1.226562 -7.574219 1.207031 -7.429688 1.207031 -7.285156 C 1.207031 -7.140625 1.175781 -6.992188 1.175781 -6.847656 C 1.175781 -6.71875 1.191406 -6.574219 1.191406 -6.414062 C 1.191406 -6.269531 1.191406 -6.125 1.191406 -5.980469 C 1.191406 -5.832031 1.175781 -5.6875 1.175781 -5.542969 C 1.175781 -5.414062 1.175781 -5.269531 1.175781 -5.125 C 1.175781 -4.980469 1.191406 -4.835938 1.191406 -4.6875 C 1.191406 -4.542969 1.160156 -4.398438 1.160156 -4.253906 C 1.160156 -4.109375 1.160156 -3.964844 1.160156 -3.820312 C 1.160156 -3.675781 1.175781 -3.527344 1.175781 -3.382812 C 1.175781 -3.238281 1.160156 -3.09375 1.160156 -2.949219 C 1.160156 -2.820312 1.175781 -2.675781 1.175781 -2.53125 C 1.175781 -2.386719 1.175781 -2.238281 1.175781 -2.09375 C 1.175781 -1.949219 1.191406 -1.804688 1.191406 -1.675781 C 1.191406 -1.515625 1.175781 -1.386719 1.175781 -1.242188 C 1.175781 -1.128906 1.191406 -1 1.175781 -0.871094 C 1.175781 -0.742188 1.128906 -0.613281 1.144531 -0.484375 C 1.144531 -0.355469 1.191406 -0.226562 1.242188 -0.128906 C 1.289062 -0.046875 1.449219 0 1.613281 0.015625 C 1.773438 0.046875 1.949219 0.046875 2.046875 0.03125 C 2.160156 0.015625 2.320312 0.03125 2.464844 0.015625 C 2.644531 0 2.789062 -0.046875 2.835938 -0.160156 C 2.882812 -0.257812 2.917969 -0.402344 2.917969 -0.5625 C 2.933594 -0.691406 2.933594 -0.839844 2.933594 -0.984375 C 2.917969 -1.128906 2.902344 -1.273438 2.902344 -1.386719 C 2.902344 -1.546875 2.902344 -1.707031 2.902344 -1.851562 C 2.917969 -2.015625 2.882812 -2.175781 2.882812 -2.335938 C 2.882812 -2.480469 2.917969 -2.644531 2.917969 -2.804688 C 2.917969 -2.949219 2.882812 -3.125 2.882812 -3.269531 C 3.03125 -3.304688 3.175781 -3.320312 3.304688 -3.335938 Z M 2.980469 -5.316406 C 2.980469 -5.445312 2.964844 -5.59375 2.964844 -5.722656 C 2.964844 -5.851562 2.980469 -5.980469 2.980469 -6.125 C 2.980469 -6.253906 2.964844 -6.382812 2.964844 -6.527344 C 2.964844 -6.65625 2.964844 -6.785156 2.964844 -6.914062 C 3.125 -6.914062 3.289062 -6.929688 3.449219 -6.945312 C 3.609375 -6.945312 3.785156 -6.929688 3.949219 -6.929688 C 4.109375 -6.929688 4.269531 -6.960938 4.429688 -6.960938 C 4.59375 -6.960938 4.753906 -6.929688 4.914062 -6.914062 C 5.058594 -6.914062 5.207031 -6.914062 5.335938 -6.882812 C 5.480469 -6.847656 5.625 -6.785156 5.738281 -6.71875 C 5.867188 -6.65625 5.960938 -6.558594 6.042969 -6.445312 C 6.140625 -6.332031 6.171875 -6.1875 6.171875 -6.058594 C 6.1875 -5.898438 6.140625 -5.753906 6.058594 -5.609375 C 5.980469 -5.480469 5.867188 -5.367188 5.738281 -5.269531 C 5.609375 -5.171875 5.480469 -5.09375 5.316406 -5.042969 C 5.171875 -4.980469 5.027344 -4.929688 4.867188 -4.914062 C 4.722656 -4.914062 4.558594 -4.914062 4.398438 -4.898438 C 4.238281 -4.898438 4.078125 -4.867188 3.914062 -4.867188 C 3.753906 -4.882812 3.609375 -4.914062 3.433594 -4.914062 C 3.289062 -4.929688 3.109375 -4.898438 2.949219 -4.898438 C 2.949219 -5.042969 2.980469 -5.1875 2.980469 -5.316406 Z M 2.980469 -5.316406 "/></g></g></g><g fill="#000000" fill-opacity="1"><g transform="translate(231.758164, 248.915075)"><g><path d="M 2.933594 -5.960938 C 2.933594 -6.125 2.933594 -6.285156 2.933594 -6.445312 C 2.933594 -6.625 2.917969 -6.785156 2.917969 -6.929688 C 2.917969 -7.058594 2.917969 -7.25 2.917969 -7.445312 C 2.902344 -7.636719 2.882812 -7.832031 2.882812 -7.976562 C 2.867188 -8.136719 2.804688 -8.265625 2.691406 -8.332031 C 2.578125 -8.394531 2.449219 -8.429688 2.289062 -8.445312 C 2.160156 -8.460938 2.015625 -8.476562 1.851562 -8.476562 C 1.628906 -8.460938 1.484375 -8.410156 1.355469 -8.347656 C 1.226562 -8.28125 1.160156 -8.171875 1.175781 -7.929688 C 1.175781 -7.847656 1.191406 -7.703125 1.191406 -7.574219 C 1.191406 -7.445312 1.160156 -7.300781 1.160156 -7.234375 C 1.160156 -7.074219 1.175781 -6.929688 1.175781 -6.769531 C 1.175781 -6.625 1.175781 -6.460938 1.175781 -6.316406 C 1.191406 -6.15625 1.160156 -6.011719 1.160156 -5.851562 C 1.160156 -5.703125 1.175781 -5.558594 1.175781 -5.398438 C 1.175781 -5.253906 1.175781 -5.09375 1.175781 -4.945312 C 1.175781 -4.785156 1.144531 -4.640625 1.160156 -4.480469 C 1.160156 -4.335938 1.175781 -4.171875 1.175781 -4.027344 C 1.175781 -3.867188 1.191406 -3.722656 1.191406 -3.578125 C 1.191406 -3.417969 1.160156 -3.269531 1.175781 -3.109375 C 1.175781 -2.964844 1.160156 -2.804688 1.160156 -2.660156 C 1.160156 -2.496094 1.175781 -2.351562 1.175781 -2.191406 C 1.175781 -2.046875 1.191406 -1.902344 1.207031 -1.742188 C 1.207031 -1.59375 1.191406 -1.417969 1.175781 -1.242188 C 1.175781 -1.078125 1.191406 -0.917969 1.257812 -0.773438 C 1.320312 -0.613281 1.402344 -0.484375 1.515625 -0.371094 C 1.628906 -0.242188 1.757812 -0.144531 1.902344 -0.0820312 C 2.03125 -0.015625 2.191406 0 2.351562 0.015625 C 2.53125 0.015625 2.660156 0 2.753906 -0.046875 C 2.882812 -0.128906 2.933594 -0.242188 2.980469 -0.371094 C 3.011719 -0.5 3.046875 -0.628906 3.046875 -0.789062 C 3.0625 -0.949219 3.0625 -1.097656 3.0625 -1.226562 C 3.0625 -1.371094 3.0625 -1.515625 3.046875 -1.675781 C 3.046875 -1.804688 3.046875 -1.949219 3.046875 -2.109375 C 3.03125 -2.273438 3.046875 -2.402344 3.0625 -2.53125 C 3.09375 -2.675781 3.109375 -2.820312 3.175781 -2.949219 C 3.238281 -3.0625 3.320312 -3.175781 3.417969 -3.289062 C 3.511719 -3.382812 3.609375 -3.480469 3.738281 -3.578125 C 3.835938 -3.65625 3.949219 -3.722656 4.078125 -3.804688 C 4.140625 -3.707031 4.191406 -3.609375 4.253906 -3.496094 C 4.300781 -3.382812 4.367188 -3.269531 4.414062 -3.160156 C 4.480469 -3.03125 4.558594 -2.933594 4.609375 -2.835938 C 4.6875 -2.707031 4.738281 -2.5625 4.816406 -2.402344 C 4.898438 -2.273438 4.964844 -2.128906 5.042969 -1.980469 C 5.109375 -1.835938 5.1875 -1.691406 5.269531 -1.546875 C 5.351562 -1.402344 5.445312 -1.273438 5.511719 -1.128906 C 5.59375 -0.984375 5.671875 -0.839844 5.738281 -0.710938 C 5.832031 -0.53125 5.898438 -0.386719 5.945312 -0.273438 C 6.042969 -0.113281 6.171875 -0.015625 6.347656 0.015625 C 6.496094 0.0664062 6.6875 0.03125 6.847656 0.03125 C 7.042969 0.015625 7.21875 0.046875 7.363281 0.046875 C 7.542969 0.046875 7.71875 0.03125 7.847656 0.015625 C 8.058594 0 8.152344 -0.0664062 8.121094 -0.289062 C 8.089844 -0.402344 8.074219 -0.5625 7.960938 -0.757812 C 7.863281 -0.933594 7.765625 -1.078125 7.703125 -1.207031 C 7.589844 -1.402344 7.492188 -1.53125 7.429688 -1.644531 C 7.316406 -1.820312 7.234375 -1.933594 7.15625 -2.078125 C 7.089844 -2.207031 7.058594 -2.351562 6.976562 -2.480469 C 6.914062 -2.59375 6.847656 -2.722656 6.769531 -2.851562 C 6.703125 -2.980469 6.605469 -3.078125 6.527344 -3.207031 C 6.460938 -3.335938 6.398438 -3.464844 6.332031 -3.59375 C 6.253906 -3.707031 6.1875 -3.835938 6.125 -3.964844 C 6.058594 -4.09375 5.960938 -4.207031 5.898438 -4.335938 C 5.832031 -4.449219 5.753906 -4.542969 5.703125 -4.65625 C 5.609375 -4.835938 5.59375 -4.800781 5.558594 -4.996094 C 5.527344 -5.171875 5.59375 -5.125 5.671875 -5.316406 C 5.722656 -5.414062 5.769531 -5.527344 5.867188 -5.609375 C 5.960938 -5.703125 6.042969 -5.832031 6.15625 -5.980469 C 6.253906 -6.089844 6.382812 -6.203125 6.476562 -6.332031 C 6.574219 -6.460938 6.65625 -6.589844 6.753906 -6.71875 C 6.847656 -6.847656 6.929688 -6.976562 7.027344 -7.105469 C 7.121094 -7.234375 7.203125 -7.378906 7.285156 -7.492188 C 7.398438 -7.636719 7.507812 -7.765625 7.574219 -7.863281 C 7.671875 -7.992188 7.703125 -8.105469 7.6875 -8.21875 C 7.65625 -8.316406 7.574219 -8.410156 7.414062 -8.460938 C 7.300781 -8.476562 7.171875 -8.476562 7.027344 -8.460938 C 6.847656 -8.445312 6.6875 -8.476562 6.542969 -8.492188 C 6.367188 -8.492188 6.203125 -8.492188 6.058594 -8.476562 C 5.898438 -8.476562 5.753906 -8.445312 5.625 -8.316406 C 5.527344 -8.203125 5.429688 -8.074219 5.335938 -7.945312 C 5.238281 -7.832031 5.140625 -7.703125 5.042969 -7.589844 C 4.945312 -7.460938 4.835938 -7.347656 4.738281 -7.234375 C 4.625 -7.121094 4.527344 -6.992188 4.429688 -6.863281 C 4.320312 -6.753906 4.207031 -6.625 4.109375 -6.496094 C 3.996094 -6.382812 3.851562 -6.285156 3.753906 -6.171875 C 3.640625 -6.042969 3.546875 -5.914062 3.433594 -5.800781 C 3.320312 -5.671875 3.222656 -5.558594 3.109375 -5.429688 C 3.0625 -5.382812 2.996094 -5.414062 2.996094 -5.496094 C 2.996094 -5.609375 2.933594 -5.785156 2.933594 -5.960938 Z M 2.933594 -5.960938 "/></g></g></g><g fill="#000000" fill-opacity="1"><g transform="translate(245.052025, 248.915075)"><g><path d="M 2.964844 -6.753906 C 3.0625 -6.847656 3.191406 -6.882812 3.320312 -6.929688 C 3.449219 -6.960938 3.578125 -7.011719 3.722656 -7.011719 C 3.851562 -7.011719 3.996094 -7.011719 4.125 -7.011719 C 4.300781 -6.992188 4.449219 -6.929688 4.59375 -6.882812 C 4.753906 -6.832031 4.914062 -6.785156 5.042969 -6.703125 C 5.1875 -6.640625 5.316406 -6.542969 5.464844 -6.445312 C 5.59375 -6.367188 5.738281 -6.285156 5.882812 -6.203125 C 6.027344 -6.109375 6.140625 -6.074219 6.253906 -6.074219 C 6.398438 -6.089844 6.496094 -6.140625 6.625 -6.253906 C 6.703125 -6.347656 6.800781 -6.445312 6.898438 -6.558594 C 7.011719 -6.71875 7.074219 -6.898438 7.140625 -7.042969 C 7.21875 -7.25 7.21875 -7.414062 7.089844 -7.527344 C 7.011719 -7.589844 6.914062 -7.703125 6.769531 -7.816406 C 6.65625 -7.878906 6.542969 -7.960938 6.398438 -8.042969 C 6.285156 -8.121094 6.15625 -8.171875 6.011719 -8.234375 C 5.882812 -8.28125 5.753906 -8.347656 5.609375 -8.394531 C 5.464844 -8.445312 5.335938 -8.476562 5.171875 -8.507812 C 5.042969 -8.539062 4.898438 -8.589844 4.753906 -8.605469 C 4.609375 -8.621094 4.464844 -8.605469 4.300781 -8.621094 C 4.171875 -8.621094 4.027344 -8.636719 3.867188 -8.621094 C 3.738281 -8.621094 3.578125 -8.589844 3.433594 -8.574219 C 3.289062 -8.539062 3.140625 -8.507812 2.996094 -8.476562 C 2.867188 -8.429688 2.722656 -8.363281 2.59375 -8.316406 C 2.464844 -8.25 2.320312 -8.203125 2.191406 -8.121094 C 2.078125 -8.042969 1.949219 -7.960938 1.835938 -7.863281 C 1.722656 -7.785156 1.628906 -7.65625 1.53125 -7.542969 C 1.433594 -7.445312 1.355469 -7.316406 1.273438 -7.1875 C 1.191406 -7.074219 1.144531 -6.929688 1.097656 -6.785156 C 1.046875 -6.65625 1.015625 -6.511719 0.984375 -6.367188 C 0.96875 -6.21875 0.949219 -6.074219 0.949219 -5.929688 C 0.949219 -5.769531 0.96875 -5.609375 1 -5.464844 C 1.03125 -5.316406 1.078125 -5.171875 1.160156 -5.027344 C 1.226562 -4.898438 1.304688 -4.769531 1.417969 -4.65625 C 1.515625 -4.527344 1.628906 -4.429688 1.757812 -4.335938 C 1.871094 -4.253906 2 -4.15625 2.144531 -4.078125 C 2.273438 -4.011719 2.402344 -3.914062 2.5625 -3.851562 C 2.707031 -3.804688 2.851562 -3.769531 2.996094 -3.722656 C 3.140625 -3.675781 3.289062 -3.609375 3.433594 -3.5625 C 3.578125 -3.496094 3.722656 -3.449219 3.867188 -3.398438 C 4.027344 -3.335938 4.15625 -3.289062 4.300781 -3.222656 C 4.449219 -3.175781 4.609375 -3.125 4.738281 -3.0625 C 4.867188 -3.011719 4.996094 -2.949219 5.125 -2.882812 C 5.269531 -2.835938 5.382812 -2.773438 5.496094 -2.691406 C 5.59375 -2.59375 5.671875 -2.496094 5.703125 -2.351562 C 5.722656 -2.238281 5.703125 -2.109375 5.640625 -1.949219 C 5.574219 -1.820312 5.511719 -1.722656 5.398438 -1.644531 C 5.300781 -1.5625 5.171875 -1.515625 5.027344 -1.484375 C 4.914062 -1.449219 4.769531 -1.417969 4.625 -1.417969 C 4.496094 -1.402344 4.367188 -1.417969 4.207031 -1.433594 C 4.0625 -1.433594 3.898438 -1.449219 3.738281 -1.5 C 3.59375 -1.546875 3.464844 -1.644531 3.320312 -1.722656 C 3.191406 -1.789062 3.03125 -1.851562 2.902344 -1.933594 C 2.773438 -2.03125 2.644531 -2.128906 2.515625 -2.222656 C 2.367188 -2.320312 2.257812 -2.433594 2.144531 -2.496094 C 1.980469 -2.609375 1.871094 -2.644531 1.742188 -2.609375 C 1.628906 -2.578125 1.53125 -2.464844 1.417969 -2.351562 C 1.320312 -2.273438 1.226562 -2.160156 1.128906 -2.0625 C 1.015625 -1.933594 0.917969 -1.835938 0.871094 -1.722656 C 0.804688 -1.59375 0.804688 -1.464844 0.855469 -1.320312 C 0.886719 -1.226562 0.96875 -1.113281 1.078125 -1 C 1.144531 -0.933594 1.289062 -0.871094 1.449219 -0.742188 C 1.546875 -0.675781 1.644531 -0.546875 1.789062 -0.46875 C 1.902344 -0.402344 2.046875 -0.355469 2.191406 -0.289062 C 2.320312 -0.226562 2.433594 -0.128906 2.578125 -0.0820312 C 2.707031 -0.015625 2.851562 0.015625 2.996094 0.046875 C 3.140625 0.0976562 3.289062 0.113281 3.433594 0.128906 C 3.578125 0.160156 3.722656 0.160156 3.882812 0.175781 C 4.027344 0.175781 4.171875 0.175781 4.320312 0.175781 C 4.464844 0.160156 4.609375 0.160156 4.753906 0.144531 C 4.898438 0.128906 5.042969 0.113281 5.1875 0.0820312 C 5.335938 0.046875 5.464844 -0.015625 5.609375 -0.0664062 C 5.753906 -0.113281 5.898438 -0.128906 6.027344 -0.195312 C 6.15625 -0.257812 6.285156 -0.339844 6.414062 -0.417969 C 6.527344 -0.5 6.65625 -0.5625 6.769531 -0.660156 C 6.882812 -0.757812 6.992188 -0.871094 7.074219 -0.984375 C 7.171875 -1.097656 7.25 -1.226562 7.316406 -1.355469 C 7.378906 -1.484375 7.429688 -1.613281 7.476562 -1.757812 C 7.507812 -1.902344 7.507812 -2.046875 7.527344 -2.207031 C 7.527344 -2.351562 7.507812 -2.496094 7.492188 -2.625 C 7.460938 -2.789062 7.460938 -2.933594 7.414062 -3.0625 C 7.363281 -3.207031 7.300781 -3.335938 7.234375 -3.464844 C 7.171875 -3.59375 7.074219 -3.707031 6.976562 -3.820312 C 6.898438 -3.933594 6.816406 -4.042969 6.703125 -4.140625 C 6.605469 -4.238281 6.476562 -4.335938 6.367188 -4.414062 C 6.238281 -4.480469 6.109375 -4.542969 5.960938 -4.59375 C 5.832031 -4.65625 5.703125 -4.707031 5.558594 -4.738281 C 5.398438 -4.785156 5.253906 -4.851562 5.109375 -4.898438 C 4.945312 -4.945312 4.800781 -4.996094 4.65625 -5.042969 C 4.511719 -5.09375 4.351562 -5.140625 4.207031 -5.1875 C 4.09375 -5.238281 3.949219 -5.269531 3.820312 -5.316406 C 3.691406 -5.367188 3.578125 -5.429688 3.449219 -5.496094 C 3.320312 -5.542969 3.207031 -5.609375 3.09375 -5.6875 C 2.980469 -5.769531 2.882812 -5.867188 2.835938 -5.980469 C 2.773438 -6.089844 2.738281 -6.238281 2.773438 -6.382812 C 2.820312 -6.542969 2.882812 -6.65625 2.964844 -6.753906 Z M 2.964844 -6.753906 "/></g></g></g></svg>